<?xml version="1.0" encoding="utf-8"?>
<!-- Generator: Adobe Illustrator 24.0.1, SVG Export Plug-In . SVG Version: 6.00 Build 0)  -->
<svg version="1.1" id="Слой_1" xmlns="http://www.w3.org/2000/svg" xmlns:xlink="http://www.w3.org/1999/xlink" x="0px" y="0px"
	 viewBox="0 0 136.1 136.1" style="enable-background:new 0 0 136.1 136.1;" xml:space="preserve">
<style type="text/css">
	.st0{fill:#FFFFFF;}
</style>
<title>call ic</title>
<path class="st0" d="M46.3,136.1c5.5-0.3,10.9-1.5,16-3.6c13.4-5.1,25.7-12.6,36.2-22.3c13.6-12.1,24.6-26.1,32-42.8
	c2.3-5.1,4-10.5,5.1-16c1.7-9-1-16.4-8.3-22c-2.1-1.6-4.3-3-6.8-4.1c-4.8-2.1-9.4-1.1-13.5,2c-4.1,3-7.6,6.8-10.4,11.2
	c-2.7,4.4-2.9,9-0.2,13.4c1.8,2.8,3.8,5.4,6,7.8c2.8,3.2,3.2,5.9,1.3,9.7c-2.6,4.7-5.8,9.1-9.5,13.1c-5.9,6.9-12.7,13.1-20.2,18.3
	c-1.8,1.2-3.7,2.3-5.7,3.3c-2.9,1.4-5.6,0.8-7.9-1.2c-2.1-1.8-4.1-3.7-6.3-5.3c-6.3-4.4-11.7-4.3-17.7,0.4c-3.1,2.4-6,5.2-8.6,8.3
	c-4.4,5.4-4.7,11.2-1,17.1c3.6,5.7,8.1,10.5,15,11.9C43.4,135.8,45.2,135.9,46.3,136.1z"/>
<path class="st0" d="M65.7,0C33.2,0,6.5,22.7,1,54.2c-1.6,9.1-1.2,18.4,1.2,27.3c0.3,1.6,1.6,2.8,3.2,3c1.5,0.2,3-0.6,3.6-2
	c0.3-1,0.3-2.1,0.2-3.1c-0.5-4-1.5-8-1.7-12.1C6.2,35.5,30.9,8.7,62.7,7.4c5.6-0.2,11.2,0.4,16.7,1.8c1.6,0.4,3.2,0.3,4.3-1.1
	c0.9-1,1.2-2.5,0.6-3.7c-0.5-1.2-1.5-2-2.7-2.3C76.4,0.7,71.1,0,65.7,0z"/>
<path class="st0" d="M65.1,20.1c-22.3,0.3-41,16.7-44.2,38.7C20,64.7,20.4,70.7,22,76.4c0.4,2,2.4,3.2,4.3,2.8
	c0.5-0.1,1-0.3,1.4-0.6c1.3-0.9,1.6-2.4,1.4-4.3c-0.6-3.6-1-7.2-1.1-10.8c0.3-16.9,13.5-32,30.1-35c5.4-1,10.9-0.8,16.1,0.5
	c2.5,0.6,4.5-0.4,5-2.5s-0.7-4.1-3.2-4.6C72.4,21.1,68.7,20.7,65.1,20.1z"/>
<path class="st0" d="M65.1,40.7c-13.5,0.1-24.3,11.1-24.2,24.6c0,1.8,0.2,3.5,0.6,5.2c0.5,2,1.6,3.2,3.2,3.4c1.6,0.3,3.1-0.5,3.8-2
	c0.3-1,0.4-2,0.2-3c-2.2-9,3.4-18,12.3-20.2c1.6-0.4,3.2-0.5,4.8-0.4c1.1,0.1,2.2,0.3,3.3,0.5c2.3,0.5,4.2-0.6,4.7-2.7
	c0.5-2-0.7-3.9-2.7-4.4c-0.1,0-0.2,0-0.3-0.1C69,41.2,67,41,65.1,40.7z"/>
</svg>
