<?xml version="1.0" encoding="utf-8"?>
<!-- Generator: Adobe Illustrator 24.0.1, SVG Export Plug-In . SVG Version: 6.00 Build 0)  -->
<svg version="1.1" id="Слой_1" xmlns="http://www.w3.org/2000/svg" xmlns:xlink="http://www.w3.org/1999/xlink" x="0px" y="0px"
	 viewBox="0 0 43 43" style="enable-background:new 0 0 43 43;" xml:space="preserve">
<style type="text/css">
	.st0{fill:#FFFFFF;}
	.st1{fill:#A803FB;}
	.st2{fill:#07B641;}
	.st3{fill:#FBFB0D;}
	.st4{fill:#013EB5;}
	.st5{fill:#D50709;}
</style>
<g>
	<image style="overflow:visible;opacity:0.2;" width="43" height="43" xlink:href="C32DA04A7568D9AA.png" >
	</image>
	<g>
		<path class="st0" d="M32.5,39.5H10.9c-4,0-7.2-3.2-7.2-7.2V10.7c0-4,3.2-7.2,7.2-7.2h21.6c4,0,7.2,3.2,7.2,7.2v21.6
			C39.7,36.3,36.5,39.5,32.5,39.5z"/>
	</g>
</g>
<title>favicon</title>
<path class="st1" d="M21.1,21H5.2V10.9c0-3.2,2.6-5.8,5.8-5.8h10.1V21z"/>
<path class="st2" d="M21.1,38H11c-3.2,0-5.8-2.6-5.8-5.8V22.1h15.9V38z"/>
<path class="st3" d="M32.4,38H22.3v-16h15.9v10.2C38.2,35.4,35.6,38,32.4,38z"/>
<path class="st4" d="M27.7,29.5h-12c-1.1,0-2-0.9-2-2v-12c0-1.1,0.9-2,2-2h12c1.1,0,2,0.9,2,2v12C29.7,28.6,28.8,29.5,27.7,29.5z"/>
<g>
	<path class="st5" d="M38.2,21.1H24.3c-1.1,0-2-0.9-2-2V5h10.1c3.2,0,5.8,2.6,5.8,5.8V21.1z"/>
</g>
</svg>
