<?xml version="1.0" encoding="utf-8"?>
<!-- Generator: Adobe Illustrator 24.0.1, SVG Export Plug-In . SVG Version: 6.00 Build 0)  -->
<svg version="1.1" id="Слой_1" xmlns="http://www.w3.org/2000/svg" xmlns:xlink="http://www.w3.org/1999/xlink" x="0px" y="0px"
	 viewBox="0 0 326.8 347.8" style="enable-background:new 0 0 326.8 347.8;" xml:space="preserve">
<style type="text/css">
	.st0{fill:#514871;}
	.st1{fill:#D0E4F4;}
	.st2{fill:#EC5557;}
	.st3{fill:#A1CCEA;}
	.st4{fill:#77AAE8;}
	.st5{fill:#FCFCFD;}
	.st6{fill:#FDFDFD;}
	.st7{fill:#F8F8F9;}
</style>
<path class="st0" d="M184,240.6c0,9.8-1.5,19.2,0.5,27.9c1.5,6.6,3.1,13.1,3.3,19.9c0,1,2.2,2.6,3.6,2.7c4.8,0.4,9.7,0.1,14.5,0.6
	c2.4,0.2,5.3,1,6.7,2.7c3,3.6,6.6,3.7,10.7,3.7c27.5-0.1,55-0.1,82.5,0c8.6,0,15.1,4,18.9,11.6c3.6,7.1,2.8,14.3-1.7,20.9
	c-3.3,4.8-7.9,7.5-13.7,8.3c-2.6,0.3-5.3,0.5-8,0.5c-26.3,0-52.7,0.1-79,0c-3.3,0-5.6,0.6-7.9,3.6c-2,2.5-6.1,4.7-9.2,4.8
	c-27.8,0.4-55.7,0.4-83.5,0c-3.3,0-7.1-2.7-9.5-5.2c-2.1-2.2-3.8-3.1-6.7-3.1c-27,0.1-54,0.1-81,0c-3.5,0-7.1-0.3-10.3-1.3
	c-9.8-3.1-15.4-12.8-13.7-22.7c1.7-10,10.3-17.1,21-17.1c28-0.1,56-0.1,84,0c3.3,0,5.6-1.1,8.4-3c3.4-2.3,8.2-3,12.4-3.8
	c4-0.7,9.4,0.9,12-1.2c2.1-1.7,0.8-7.4,1.2-11.4c0.1-1.5,0.1-3.1,0.8-4.4c5.4-9.9,1.8-20.6,2.6-30.9c0.1-0.9-1.8-2.3-3-2.8
	c-1.1-0.5-2.6-0.1-4-0.1c-28.2,0-56.3,0-84.5,0c-15.4,0-24.2-8.8-24.2-24.2c0-64.2,0-128.3,0-192.5c0-14.9,8.8-23.8,23.6-23.8
	c28-0.1,56,0.1,84-0.1c5.2,0,8.8,1.8,11.6,6.2c3.6,5.6,7.8,10.8,11.4,16.4c2,3,4.2,4.1,7.8,4.1c32.3-0.1,64.7-0.1,97-0.1
	c15.4,0,24.1,8.7,24.1,24.2c0,55,0,110,0,165c0,16-8.8,24.7-24.7,24.8c-23.8,0-47.7,0-71.5,0C188.5,240.6,186.7,240.6,184,240.6z
	 M248,73.8c-1.8-0.1-3.7-0.2-5.5-0.2c-63.3,0-126.6,0-189.9,0c-9.5,0-11.4,1.9-11.4,11.4c0,43,0,86,0,129c0,10.8,1.8,12.5,12.4,12.5
	c62.1,0,124.3,0,186.4,0c2.7,0,5.3-0.3,8-0.5c4.5,0.2,8.9,0.5,13.4,0.5c8.5,0,10.7-2.2,10.7-10.6c0-35,0-70,0-104.9
	c0-9.7,0.1-19.3,0-29c-0.1-5.8-2.5-8.3-8.1-8.4C258.6,73.5,253.3,73.7,248,73.8z M41.1,59.7c77.2,0,153.9,0,231,0c0-2.8,0-5.1,0-7.4
	c0-9.8-1.8-11.6-11.7-11.6c-33.3,0-66.6-0.1-99.9,0.1c-5.2,0-8.8-1.5-11.6-5.9c-3.6-5.8-7.9-11.1-11.6-16.9c-2-3.1-4.3-4-7.8-4
	C105.3,14.1,81.2,14,57,14c-15.1,0-15.9,0.8-15.9,15.7C41.1,39.8,41.1,49.9,41.1,59.7z M123.9,305.6c0,8,0.2,15.3-0.1,22.6
	c-0.2,4.2,0.9,5.8,5.4,5.7c22.8-0.2,45.6-0.1,68.5-0.1c1.6,0,3.2-0.2,4.9-0.3c0-9.5,0-18.5,0-27.9c-6.7,0-13.1,0-19.4,0
	c-7.3,0-10-2.7-10-9.9c-0.1-5.1,0-10.2,0-15.4c-6.8,0-12.9,0-19.5,0c0,5.7,0.3,11-0.1,16.3c-0.4,6.7-3.1,9-9.9,9.1
	C137.4,305.6,131.1,305.6,123.9,305.6z M109.4,312.7c-1.5-0.1-2.8-0.3-4.1-0.3c-27.5,0-55,0-82.4,0c-1.2,0-2.7-0.4-3.4,0.2
	c-1.9,1.8-4.4,3.7-4.9,6c-0.7,3.2,1.5,5.6,5,6.3c1,0.2,2,0.2,3,0.2c27.8,0,55.6,0,83.4,0c1.1,0,2.2-0.3,3.4-0.4
	C109.4,320.5,109.4,316.7,109.4,312.7z M217.4,324.6c1.2,0.1,2,0.3,2.8,0.3c28.1,0,56.3,0,84.4,0c1.2,0,2.8,0.3,3.4-0.4
	c1.7-1.8,4.1-4,4.1-6c0-2-2.4-4.2-4.2-5.8c-0.9-0.8-2.9-0.4-4.4-0.4c-27.1,0-54.3,0-81.4,0c-1.5,0-2.9,0.2-4.6,0.3
	C217.4,316.7,217.4,320.4,217.4,324.6z M169.5,265.6c0-8.6,0-16.6,0-24.8c-4.2,0-8.1,0-12.1,0c0,8.4,0,16.6,0,24.8
	C161.6,265.6,165.4,265.6,169.5,265.6z"/>
<path class="st1" d="M248,225.9c-2.7,0.2-5.3,0.5-8,0.5c-62.1,0-124.3,0-186.4,0c-10.7,0-12.4-1.8-12.4-12.5c0-43,0-86,0-129
	c0-9.5,1.9-11.4,11.4-11.4c63.3,0,126.6,0,189.9,0c1.8,0,3.7,0.2,5.5,0.2c0.4,2.8,1,5.6,1,8.3c0.1,45,0.1,90,0,134.9
	C249,220,248.3,223,248,225.9z"/>
<path class="st2" d="M41.1,59.7c0-9.7,0-19.8,0-30C41.1,14.8,41.9,14,57,14c24.1,0,48.3,0.1,72.4-0.1c3.5,0,5.9,0.9,7.8,4
	c3.7,5.7,8,11.1,11.6,16.9c2.8,4.5,6.4,6,11.6,5.9c33.3-0.2,66.6-0.1,99.9-0.1c9.9,0,11.7,1.8,11.7,11.6c0,2.3,0,4.6,0,7.4
	C195,59.7,118.4,59.7,41.1,59.7z"/>
<path class="st3" d="M248,225.9c0.4-3,1-5.9,1-8.9c0.1-45,0.1-90,0-134.9c0-2.8-0.7-5.6-1-8.3c5.3-0.1,10.7-0.3,16-0.2
	c5.7,0.1,8.1,2.6,8.1,8.4c0.1,9.7,0,19.3,0,29c0,35,0,70,0,104.9c0,8.4-2.2,10.6-10.7,10.6C256.9,226.4,252.4,226.1,248,225.9z"/>
<path class="st4" d="M123.9,305.6c7.2,0,13.5,0,19.8,0c6.8,0,9.5-2.3,9.9-9.1c0.3-5.3,0.1-10.6,0.1-16.3c6.6,0,12.7,0,19.5,0
	c0,5.2,0,10.3,0,15.4c0.1,7.2,2.8,9.9,10,9.9c6.3,0,12.6,0,19.4,0c0,9.4,0,18.4,0,27.9c-1.7,0.1-3.3,0.3-4.9,0.3
	c-22.8,0-45.6-0.1-68.5,0.1c-4.6,0-5.6-1.5-5.4-5.7C124.1,320.9,123.9,313.6,123.9,305.6z"/>
<path class="st5" d="M109.4,312.7c0,4,0,7.8,0,11.9c-1.2,0.2-2.3,0.4-3.4,0.4c-27.8,0-55.6,0-83.4,0c-1,0-2,0-3-0.2
	c-3.5-0.6-5.7-3.1-5-6.3c0.5-2.3,3-4.2,4.9-6c0.7-0.6,2.2-0.2,3.4-0.2c27.5,0,55,0,82.4,0C106.6,312.4,107.8,312.5,109.4,312.7z"/>
<path class="st6" d="M217.4,324.6c0-4.2,0-8,0-12c1.7-0.1,3.2-0.3,4.6-0.3c27.1,0,54.3,0,81.4,0c1.5,0,3.5-0.4,4.4,0.4
	c1.8,1.6,4.2,3.8,4.2,5.8c0,2-2.4,4.2-4.1,6c-0.6,0.6-2.2,0.4-3.4,0.4c-28.1,0-56.3,0-84.4,0C219.4,324.9,218.6,324.8,217.4,324.6z"
	/>
<path class="st7" d="M169.5,265.6c-4.1,0-7.9,0-12.1,0c0-8.2,0-16.4,0-24.8c4,0,7.9,0,12.1,0C169.5,249,169.5,257,169.5,265.6z"/>
</svg>
