<?xml version="1.0" encoding="utf-8"?>
<!-- Generator: Adobe Illustrator 24.0.1, SVG Export Plug-In . SVG Version: 6.00 Build 0)  -->
<svg version="1.1" id="Слой_1" xmlns="http://www.w3.org/2000/svg" xmlns:xlink="http://www.w3.org/1999/xlink" x="0px" y="0px"
	 viewBox="0 0 721.7 549.3" style="enable-background:new 0 0 721.7 549.3;" xml:space="preserve">
<style type="text/css">
	.st0{fill:#514871;}
	.st1{fill:#E5E5E5;}
	.st2{fill:#4373BF;}
	.st3{fill:#B2B2B2;}
	.st4{fill:#C6C6C6;}
	.st5{fill:#FCFCFD;}
	.st6{fill:#FDFDFD;}
	.st7{fill:#F8F8F9;}
	.st8{opacity:0.63;}
	.st9{fill:#FFFFFF;}
	.st10{fill:#D50709;}
</style>
<g>
	<g>
		<path class="st0" d="M578.9,442.1c0,9.8-1.5,19.2,0.5,27.9c1.5,6.6,3.1,13.1,3.3,19.9c0,1,2.2,2.6,3.6,2.7
			c4.8,0.4,9.7,0.1,14.5,0.6c2.4,0.2,5.3,1,6.7,2.7c3,3.6,6.6,3.7,10.7,3.7c27.5-0.1,55-0.1,82.5,0c8.6,0,15.1,4,18.9,11.6
			c3.6,7.1,2.8,14.3-1.7,20.9c-3.3,4.8-7.9,7.5-13.7,8.3c-2.6,0.3-5.3,0.5-8,0.5c-26.3,0-52.7,0.1-79,0c-3.3,0-5.6,0.6-7.9,3.6
			c-2,2.5-6.1,4.7-9.2,4.8c-27.8,0.4-55.7,0.4-83.5,0c-3.3,0-7.1-2.7-9.5-5.2c-2.1-2.2-3.8-3.1-6.7-3.1c-27,0.1-54,0.1-81,0
			c-3.5,0-7.1-0.3-10.3-1.3c-9.8-3.1-15.4-12.8-13.7-22.7c1.7-10,10.3-17.1,21-17.1c28-0.1,56-0.1,84,0c3.3,0,5.6-1.1,8.4-3
			c3.4-2.3,8.2-3,12.4-3.8c4-0.7,9.4,0.9,12-1.2c2.1-1.7,0.8-7.4,1.2-11.4c0.1-1.5,0.1-3.1,0.8-4.4c5.4-9.9,1.8-20.6,2.6-30.9
			c0.1-0.9-1.8-2.3-3-2.8c-1.1-0.5-2.6-0.1-4-0.1c-28.2,0-56.3,0-84.5,0c-15.4,0-24.2-8.8-24.2-24.2c0-64.2,0-128.3,0-192.5
			c0-14.9,8.8-23.8,23.6-23.8c28-0.1,56,0.1,84-0.1c5.2,0,8.8,1.8,11.6,6.2c3.6,5.6,7.8,10.8,11.4,16.4c2,3,4.2,4.1,7.8,4.1
			c32.3-0.1,64.7-0.1,97-0.1c15.4,0,24.1,8.7,24.1,24.2c0,55,0,110,0,165c0,16-8.8,24.7-24.7,24.8c-23.8,0-47.7,0-71.5,0
			C583.4,442.1,581.5,442.1,578.9,442.1z M642.8,275.2c-1.8-0.1-3.7-0.2-5.5-0.2c-63.3,0-126.6,0-189.9,0c-9.5,0-11.4,1.9-11.4,11.4
			c0,43,0,86,0,129c0,10.8,1.8,12.5,12.4,12.5c62.1,0,124.3,0,186.4,0c2.7,0,5.3-0.3,8-0.5c4.5,0.2,8.9,0.5,13.4,0.5
			c8.5,0,10.7-2.2,10.7-10.6c0-35,0-70,0-104.9c0-9.7,0.1-19.3,0-29c-0.1-5.8-2.5-8.3-8.1-8.4C653.5,275,648.2,275.2,642.8,275.2z
			 M436,261.1c77.2,0,153.9,0,231,0c0-2.8,0-5.1,0-7.4c0-9.8-1.8-11.6-11.7-11.6c-33.3,0-66.6-0.1-99.9,0.1c-5.2,0-8.8-1.5-11.6-5.9
			c-3.6-5.8-7.9-11.1-11.6-16.9c-2-3.1-4.3-4-7.8-4c-24.1,0.1-48.3,0.1-72.4,0.1c-15.1,0-15.9,0.8-15.9,15.7
			C436,241.3,436,251.4,436,261.1z M518.8,507c0,8,0.2,15.3-0.1,22.6c-0.2,4.2,0.9,5.8,5.4,5.7c22.8-0.2,45.6-0.1,68.5-0.1
			c1.6,0,3.2-0.2,4.9-0.3c0-9.5,0-18.5,0-27.9c-6.7,0-13.1,0-19.4,0c-7.3,0-10-2.7-10-9.9c-0.1-5.1,0-10.2,0-15.4
			c-6.8,0-12.9,0-19.5,0c0,5.7,0.3,11-0.1,16.3c-0.4,6.7-3.1,9-9.9,9.1C532.3,507.1,525.9,507,518.8,507z M504.3,514.1
			c-1.5-0.1-2.8-0.3-4.1-0.3c-27.5,0-55,0-82.4,0c-1.2,0-2.7-0.4-3.4,0.2c-1.9,1.8-4.4,3.7-4.9,6c-0.7,3.2,1.5,5.6,5,6.3
			c1,0.2,2,0.2,3,0.2c27.8,0,55.6,0,83.4,0c1.1,0,2.2-0.3,3.4-0.4C504.3,521.9,504.3,518.2,504.3,514.1z M612.3,526.1
			c1.2,0.1,2,0.3,2.8,0.3c28.1,0,56.3,0,84.4,0c1.2,0,2.8,0.3,3.4-0.4c1.7-1.8,4.1-4,4.1-6c0-2-2.4-4.2-4.2-5.8
			c-0.9-0.8-2.9-0.4-4.4-0.4c-27.1,0-54.3,0-81.4,0c-1.5,0-2.9,0.2-4.6,0.3C612.3,518.1,612.3,521.9,612.3,526.1z M564.4,467.1
			c0-8.6,0-16.6,0-24.8c-4.2,0-8.1,0-12.1,0c0,8.4,0,16.6,0,24.8C556.5,467.1,560.3,467.1,564.4,467.1z"/>
		<path class="st1" d="M642.8,427.4c-2.7,0.2-5.3,0.5-8,0.5c-62.1,0-124.3,0-186.4,0c-10.7,0-12.4-1.8-12.4-12.5c0-43,0-86,0-129
			c0-9.5,1.9-11.4,11.4-11.4c63.3,0,126.6,0,189.9,0c1.8,0,3.7,0.2,5.5,0.2c0.4,2.8,1,5.6,1,8.3c0.1,45,0.1,90,0,134.9
			C643.9,421.5,643.2,424.4,642.8,427.4z"/>
		<path class="st2" d="M436,261.1c0-9.7,0-19.8,0-30c0-14.9,0.8-15.7,15.9-15.7c24.1,0,48.3,0.1,72.4-0.1c3.5,0,5.9,0.9,7.8,4
			c3.7,5.7,8,11.1,11.6,16.9c2.8,4.5,6.4,6,11.6,5.9c33.3-0.2,66.6-0.1,99.9-0.1c9.9,0,11.7,1.8,11.7,11.6c0,2.3,0,4.6,0,7.4
			C589.9,261.1,513.3,261.1,436,261.1z"/>
		<path class="st3" d="M642.8,427.4c0.4-3,1-5.9,1-8.9c0.1-45,0.1-90,0-134.9c0-2.8-0.7-5.6-1-8.3c5.3-0.1,10.7-0.3,16-0.2
			c5.7,0.1,8.1,2.6,8.1,8.4c0.1,9.7,0,19.3,0,29c0,35,0,70,0,104.9c0,8.4-2.2,10.6-10.7,10.6C651.8,427.9,647.3,427.6,642.8,427.4z"
			/>
		<path class="st4" d="M518.8,507c7.2,0,13.5,0,19.8,0c6.8,0,9.5-2.3,9.9-9.1c0.3-5.3,0.1-10.6,0.1-16.3c6.6,0,12.7,0,19.5,0
			c0,5.2,0,10.3,0,15.4c0.1,7.2,2.8,9.9,10,9.9c6.3,0,12.6,0,19.4,0c0,9.4,0,18.4,0,27.9c-1.7,0.1-3.3,0.3-4.9,0.3
			c-22.8,0-45.6-0.1-68.5,0.1c-4.6,0-5.6-1.5-5.4-5.7C519,522.4,518.8,515.1,518.8,507z"/>
		<path class="st5" d="M504.3,514.1c0,4,0,7.8,0,11.9c-1.2,0.2-2.3,0.4-3.4,0.4c-27.8,0-55.6,0-83.4,0c-1,0-2,0-3-0.2
			c-3.5-0.6-5.7-3.1-5-6.3c0.5-2.3,3-4.2,4.9-6c0.7-0.6,2.2-0.2,3.4-0.2c27.5,0,55,0,82.4,0C501.5,513.8,502.7,514,504.3,514.1z"/>
		<path class="st6" d="M612.3,526.1c0-4.2,0-8,0-12c1.7-0.1,3.2-0.3,4.6-0.3c27.1,0,54.3,0,81.4,0c1.5,0,3.5-0.4,4.4,0.4
			c1.8,1.6,4.2,3.8,4.2,5.8c0,2-2.4,4.2-4.1,6c-0.6,0.6-2.2,0.4-3.4,0.4c-28.1,0-56.3,0-84.4,0C614.3,526.4,613.5,526.3,612.3,526.1
			z"/>
		<path class="st7" d="M564.4,467.1c-4.1,0-7.9,0-12.1,0c0-8.2,0-16.4,0-24.8c4,0,7.9,0,12.1,0C564.4,450.5,564.4,458.5,564.4,467.1
			z"/>
		<g class="st8">
			<path d="M340,191.3c0.3-0.8,0.5-1.4,0.8-2c22.3-57.6,44.6-115.1,66.8-172.7c0.8-2.1,0.8-2.1,3.5-1
				c49.3,19.1,98.6,38.2,147.9,57.2c8.5,3.3,11.8,8.8,9.3,15.5c-20.2,52.1-40.3,104.2-60.5,156.3c-1.6,4.1-4.7,6.7-10.4,6.6
				c-2,0-4.1-0.5-6-1.3c-49.8-19.2-99.7-38.5-149.5-57.8C341.3,191.9,340.8,191.7,340,191.3z M471.1,207.2c2.6,0.7,5.2,1.5,7.9,2.1
				c16.9,3.7,32.9-4.6,35.2-18c1.1-6.3-0.6-12.4-3.5-18.7c-5.9-12.8-1.6-23.5,11.2-29.1c3.4-1.5,7-3.1,9.7-5.3
				c8.2-6.6,11-15.4,6.9-25.8c-4.1-10.6-12.9-17.8-25.4-21.9c-5.8-1.9-11.5-2-17.2-1.6c-16.1,1.2-32.3-0.9-48.5-6.1
				c-9.3-3-18.7-6.1-28-9.1c-3.3-1.1-6.5-1.1-9.6-0.4c-5.4,1.3-8.7,4.4-9.2,9.1c-0.6,5.4,1.8,10.5,7.4,14.3
				c8.2,5.7,16.8,11,25.2,16.5c5.9,3.8,11.9,7.6,16.8,12.5c4.6,4.7,2.8,11.1-3.6,11.6c-3.7,0.3-7.5,0.3-11.3-0.3
				c-13.2-2-26.4-4.2-39.5-6.3c-4.9-0.8-9.1,0.2-12.6,2.5c-7.5,4.8-6.4,14.9,2.4,20.7c2.3,1.5,5.1,2.7,7.7,3.9
				c8.4,3.8,17,7.4,25.3,11.5c14.7,7.1,27.1,16.5,37.7,27.7C460,201.2,465.1,204.6,471.1,207.2z M518.7,71.3
				c9.2,3.6,18.5,7.1,27.7,10.7c5.4,2.1,5.3,2.1,7.1-2.1c0.7-1.6,0.1-2.2-1.8-2.9c-19.4-7.4-38.8-15-58.1-22.5
				c-5.7-2.2-5.7-2.2-7.4,2.3c-0.5,1.3,0,1.8,1.5,2.4C498,63.3,508.3,67.3,518.7,71.3z M365.1,183.8c-2.5-1-4.9-1.9-7.3-2.8
				c-0.7,1.5-1.5,3-2.2,4.5c-0.1,0.1-0.2,0.3-0.1,0.5c0.2,0.4,0.4,1,0.7,1.1c2.2,0.9,4.4,1.7,6.8,2.7c0.7-1.7,1.2-3.2,1.8-4.6
				C364.9,184.7,365,184.2,365.1,183.8z M392.7,194.3c-4.7-1.7-3.8-2-5.2,1.7c-1.2,3.2-1.6,2.6,2.6,4.3c4.1,1.6,4.1,1.6,5.3-1.6
				C396.6,195.3,397,196,392.7,194.3z M374.8,194.3c4.4,1.6,3.6,1.9,4.9-1.4c0-0.1,0-0.1,0.1-0.2c1.3-3.4,1.7-2.7-2.7-4.5
				c-3.9-1.5-3.9-1.5-5,1.5C370.8,192.8,370.8,192.8,374.8,194.3z M402,204.8c2.4,0.9,4.6,1.8,6.8,2.6c0.4,0.1,1.2-0.3,1.4-0.7
				c0.6-1.2,1.1-2.5,1.5-3.8c0.1-0.4-0.4-1.3-0.9-1.6c-1.7-0.8-3.5-1.5-5.3-2c-0.4-0.1-1.2,0.1-1.4,0.3
				C403.3,201.3,402.8,202.9,402,204.8z M473.8,54c3.9,1.5,3.9,1.5,5.1-1.6c0-0.1,0-0.1,0.1-0.2c1.2-3.3,1.5-2.7-2.6-4.3
				c-4.1-1.6-4.1-1.6-5.3,1.5C470,52.5,470,52.5,473.8,54z"/>
			<path d="M333.3,69.6c0.9,0.3,1.5,0.6,2.2,0.8c11.5,4.5,23,9,34.6,13.3c1.9,0.7,2.1,1.3,1.5,2.7c-13,33.3-25.9,66.7-38.7,100.1
				c-0.5,1.4-1.2,1.7-3,0.9c-8-3.2-16-6.2-23.9-9.3c-8-3.1-11.3-8.8-8.9-15.1c11.8-30.6,23.7-61.2,35.5-91.8
				C332.7,70.9,333,70.4,333.3,69.6z M328.8,127.5c-1,2.6-2,5.1-2.9,7.6c-1.9,4.8-1.9,4.8,4.4,6.9c0.1,0,0.1,0,0.2,0.1
				c1,0.4,1.5,0.2,1.8-0.6c1.3-3.3,2.6-6.6,3.8-10c0.1-0.4-0.4-1.3-0.8-1.5C333.3,129.2,331.2,128.5,328.8,127.5z M319.4,151.9
				c-1.5,3.9-3,7.6-4.3,11.3c-0.1,0.3,0.4,1.1,0.8,1.3c1.7,0.8,3.5,1.5,5.3,2c0.4,0.1,1.4-0.1,1.5-0.4c1.4-3.4,2.7-6.8,4-10.3
				c0.1-0.3-0.4-1.2-0.7-1.3C323.9,153.6,321.8,152.8,319.4,151.9z"/>
			<path d="M335.6,63.4c0.2-0.6,0.5-1.2,0.7-1.8c7.1-18.3,14.1-36.5,21.2-54.8c2.5-6.6,8.7-8.4,17.1-5.2c7.9,3.1,15.8,6.2,23.8,9.2
				c1.6,0.6,2,1.2,1.5,2.5c-8.3,21.3-16.5,42.6-24.7,63.8c-0.4,1-0.7,1.6-2.3,0.9c-11.9-4.7-23.8-9.2-35.7-13.9
				C336.7,63.9,336.3,63.7,335.6,63.4z M362,52.7c2,0.9,4.4,0.3,5.2-1.3c0.8-1.6-0.3-3.7-2.4-4.6c-2.1-0.9-4.4-0.3-5.1,1.3
				C358.9,49.7,359.9,51.8,362,52.7z M373.9,22.4c-2.2-0.8-4.3-0.1-5,1.6c-0.6,1.6,0.5,3.5,2.6,4.4c2.1,0.9,4.4,0.2,5.1-1.5
				C377.3,25.2,376.1,23.2,373.9,22.4z M366.9,40.6c2.2,0.8,4.4,0.1,5-1.6c0.6-1.6-0.6-3.6-2.6-4.4c-2.1-0.9-4.4-0.2-5.1,1.5
				C363.6,37.8,364.8,39.7,366.9,40.6z"/>
			<path class="st9" d="M471.1,207.2c-6-2.6-11.1-6-15.3-10.5c-10.5-11.3-23-20.6-37.7-27.7c-8.3-4-16.9-7.6-25.3-11.5
				c-2.6-1.2-5.3-2.3-7.7-3.9c-8.8-5.8-9.9-15.9-2.4-20.7c3.5-2.2,7.7-3.2,12.6-2.5c13.2,2.1,26.4,4.4,39.5,6.3
				c3.8,0.6,7.7,0.6,11.3,0.3c6.4-0.5,8.2-6.9,3.6-11.6c-4.8-4.9-10.8-8.7-16.8-12.5c-8.4-5.5-16.9-10.8-25.2-16.5
				c-5.6-3.9-8.1-8.9-7.4-14.3c0.5-4.8,3.8-7.8,9.2-9.1c3.1-0.7,6.3-0.7,9.6,0.4c9.3,3,18.7,6.1,28,9.1c16.2,5.2,32.4,7.3,48.5,6.1
				c5.7-0.4,11.4-0.3,17.2,1.6c12.5,4.1,21.3,11.3,25.4,21.9c4,10.4,1.3,19.1-6.9,25.8c-2.7,2.2-6.3,3.8-9.7,5.3
				c-12.8,5.6-17.1,16.3-11.2,29.1c2.9,6.3,4.6,12.5,3.5,18.7c-2.3,13.5-18.4,21.8-35.2,18C476.3,208.7,473.7,207.9,471.1,207.2z
				 M531,125.6c4.5-11.3-5.3-25.3-20.4-29.2c-4.7-1.2-9.1-1.2-13.6-0.9c-17.6,1.2-35.3-1.2-53-7.1c-8.4-2.8-16.8-5.6-25.2-8.3
				c-4.3-1.4-8-0.6-9.7,2.1c-1.7,2.7-0.1,7.2,3.6,9.7c8.2,5.4,16.5,10.9,24.8,16.2c6.3,4.1,12.6,8.2,17.9,13.3
				c8.9,8.7,5.5,20.9-6.5,22.3c-4.2,0.5-8.7,0.5-13.1-0.1c-8.7-1.1-17.5-2.8-26.2-4.2c-5.1-0.8-10.1-1.8-15.2-2.4
				c-4.1-0.5-8,1.8-8.5,4.7c-0.6,3.3,1.6,6.4,6,8.3c6.1,2.7,12.3,5.5,18.5,8.2c11.1,4.8,21.8,10.3,31.4,17.3
				c7.7,5.6,14.3,11.8,20.8,18.4c7.8,7.9,20.1,11.2,30.2,8.5c9.8-2.7,15.2-10.8,13.1-20.4c-0.8-3.5-2.6-7-3.9-10.5
				c-4.2-11.2-2.2-20.7,5.9-28.5c3.3-3.2,7.8-5.1,12.3-7.1C525.5,133.7,529.1,130.3,531,125.6z"/>
			<path class="st9" d="M518.7,71.3c-10.3-4-20.7-8-31-12c-1.6-0.6-2.1-1.1-1.5-2.4c1.8-4.5,1.7-4.5,7.4-2.3
				c19.4,7.5,38.7,15,58.1,22.5c1.9,0.7,2.5,1.3,1.8,2.9c-1.8,4.1-1.7,4.2-7.1,2.1C537.1,78.5,527.9,74.9,518.7,71.3z"/>
			<path class="st9" d="M365.1,183.8c-0.1,0.5-0.2,0.9-0.3,1.3c-0.6,1.5-1.1,2.9-1.8,4.6c-2.4-0.9-4.6-1.7-6.8-2.7
				c-0.3-0.1-0.5-0.7-0.7-1.1c-0.1-0.1,0.1-0.3,0.1-0.5c0.7-1.5,1.5-3,2.2-4.5C360.2,181.9,362.6,182.8,365.1,183.8z"/>
			<path class="st9" d="M392.7,194.3c4.3,1.7,3.9,1,2.6,4.4c-1.2,3.1-1.2,3.1-5.3,1.6c-4.2-1.6-3.8-1.1-2.6-4.3
				C388.9,192.3,388.1,192.6,392.7,194.3z"/>
			<path class="st9" d="M374.8,194.3c-4-1.5-4-1.5-2.8-4.6c1.2-3,1.2-3,5-1.5c4.4,1.7,4,1.1,2.7,4.5c0,0.1,0,0.1-0.1,0.2
				C378.4,196.1,379.1,195.9,374.8,194.3z"/>
			<path class="st9" d="M402,204.8c0.7-1.9,1.3-3.6,2.1-5.2c0.1-0.3,1-0.5,1.4-0.3c1.8,0.6,3.6,1.2,5.3,2c0.5,0.2,1,1.2,0.9,1.6
				c-0.3,1.3-0.8,2.6-1.5,3.8c-0.2,0.4-1,0.8-1.4,0.7C406.6,206.6,404.4,205.7,402,204.8z"/>
			<path class="st9" d="M473.8,54c-3.8-1.5-3.8-1.5-2.6-4.5c1.2-3.1,1.2-3.1,5.3-1.5c4.1,1.6,3.8,1,2.6,4.3c0,0.1,0,0.1-0.1,0.2
				C477.7,55.5,477.7,55.5,473.8,54z"/>
			<path class="st9" d="M328.8,127.5c2.4,0.9,4.5,1.7,6.5,2.6c0.4,0.2,0.9,1.1,0.8,1.5c-1.2,3.4-2.5,6.7-3.8,10
				c-0.3,0.8-0.8,1-1.8,0.6c-0.1,0-0.1-0.1-0.2-0.1c-6.3-2.1-6.3-2.1-4.4-6.9C326.8,132.6,327.8,130.2,328.8,127.5z"/>
			<path class="st9" d="M319.4,151.9c2.4,0.9,4.5,1.7,6.6,2.6c0.4,0.2,0.9,1,0.7,1.3c-1.2,3.5-2.6,6.9-4,10.3
				c-0.1,0.3-1.1,0.6-1.5,0.4c-1.8-0.6-3.6-1.3-5.3-2c-0.4-0.2-0.9-1-0.8-1.3C316.4,159.5,317.9,155.8,319.4,151.9z"/>
			<path class="st9" d="M362,52.7c-2.1-0.9-3.1-3-2.4-4.6c0.7-1.6,3.1-2.2,5.1-1.3c2.1,0.9,3.1,3,2.4,4.6
				C366.4,53,364,53.6,362,52.7z"/>
			<path class="st9" d="M373.9,22.4c2.2,0.8,3.4,2.8,2.7,4.5c-0.7,1.7-2.9,2.3-5.1,1.5c-2.1-0.8-3.2-2.7-2.6-4.4
				C369.6,22.2,371.7,21.6,373.9,22.4z"/>
			<path class="st9" d="M366.9,40.6c-2.2-0.8-3.4-2.8-2.7-4.5c0.7-1.7,2.9-2.3,5.1-1.5c2,0.8,3.2,2.8,2.6,4.4
				C371.3,40.7,369.1,41.4,366.9,40.6z"/>
			<path d="M531,125.6c-1.8,4.7-5.5,8.1-10.6,10.4c-4.5,1.9-9,3.9-12.3,7.1c-8.2,7.8-10.1,17.3-5.9,28.5c1.3,3.5,3.1,7,3.9,10.5
				c2.1,9.6-3.2,17.7-13.1,20.4c-10.1,2.8-22.4-0.6-30.2-8.5c-6.4-6.5-13.1-12.8-20.8-18.4c-9.7-7-20.3-12.5-31.4-17.3
				c-6.2-2.7-12.3-5.5-18.5-8.2c-4.4-2-6.6-5-6-8.3c0.5-2.9,4.4-5.2,8.5-4.7c5.1,0.6,10.1,1.6,15.2,2.4c8.7,1.4,17.5,3.1,26.2,4.2
				c4.4,0.6,8.9,0.6,13.1,0.1c12-1.4,15.4-13.6,6.5-22.3c-5.3-5.2-11.6-9.2-17.9-13.3c-8.3-5.4-16.6-10.8-24.8-16.2
				c-3.8-2.5-5.4-7-3.6-9.7c1.7-2.7,5.4-3.5,9.7-2.1c8.4,2.7,16.8,5.5,25.2,8.3c17.7,5.9,35.4,8.3,53,7.1c4.5-0.3,8.9-0.3,13.6,0.9
				C525.7,100.3,535.5,114.3,531,125.6z M477.8,168c1.9-0.1,3.7-0.2,5.5-0.1c1.7,0.1,2.2-0.4,1.9-1.9c-1.3-6.4-0.8-12.4,1.2-18.2
				c2.3-6.7,6.5-12.3,12.5-16.8c0.4-0.3,0.8-1.2,0.6-1.4c-1.6-1.7-3.3-3.3-4.9-4.9C479.8,134.1,473.3,152,477.8,168z"/>
			<path class="st9" d="M477.8,168c-4.5-16,1.9-33.9,16.8-43.4c1.7,1.6,3.4,3.2,4.9,4.9c0.2,0.2-0.2,1.1-0.6,1.4
				c-6,4.5-10.2,10.1-12.5,16.8c-2,5.8-2.5,11.8-1.2,18.2c0.3,1.5-0.2,2-1.9,1.9C481.6,167.9,479.8,168,477.8,168z"/>
		</g>
	</g>
	<g class="st8">
		<path d="M193.2,398.4c-0.8-0.2-1.4-0.4-2-0.5C131.5,382,71.9,366.1,12.3,350.2c-2.1-0.6-2.1-0.6-1.4-3.3
			c13.6-51.1,27.3-102.2,40.9-153.2c2.4-8.9,7.5-12.7,14.4-10.9c54,14.4,107.9,28.8,161.9,43.2c4.3,1.1,7.2,4,7.7,9.6
			c0.2,2-0.1,4.2-0.6,6.2c-13.7,51.6-27.5,103.3-41.3,154.9C193.7,397,193.5,397.6,193.2,398.4z M194.8,266.4
			c0.4-2.7,0.9-5.4,1.2-8.1c1.9-17.2-8.1-32.3-21.8-33.1c-6.4-0.4-12.3,2-18.2,5.5c-12.1,7.2-23.2,4.1-30.2-8
			c-1.9-3.3-3.9-6.6-6.4-9.1c-7.5-7.5-16.5-9.2-26.4-4.1c-10.1,5.2-16.3,14.7-19,27.6c-1.2,6-0.8,11.7,0.3,17.3
			c2.9,15.9,2.6,32.2-0.8,48.9c-2,9.6-4,19.2-6,28.8c-0.7,3.4-0.4,6.6,0.6,9.6c1.9,5.2,5.3,8.1,10.1,8.1c5.5,0,10.2-3,13.4-9
			c4.7-8.8,9.1-17.8,13.6-26.8c3.2-6.3,6.2-12.7,10.6-18c4.2-5.1,10.7-4,11.9,2.3c0.7,3.6,1.1,7.5,1,11.3c-0.5,13.3-1.4,26.7-2,40
			c-0.3,5,1.2,9,3.8,12.3c5.6,6.9,15.5,4.7,20.3-4.6c1.3-2.5,2.1-5.3,3-8c2.9-8.8,5.5-17.7,8.7-26.4c5.5-15.3,13.4-28.8,23.5-40.4
			C190.1,278,192.9,272.6,194.8,266.4z M54.6,233.8c2.6-9.6,5.1-19.1,7.7-28.7c1.5-5.6,1.5-5.5-2.8-6.8c-1.7-0.5-2.2,0.1-2.7,2.1
			c-5.3,20.1-10.7,40.2-16,60.2c-1.6,5.9-1.6,5.9,3.1,7.1c1.4,0.4,1.8-0.2,2.3-1.8C48.9,255.2,51.7,244.5,54.6,233.8z M183,374.3
			c-0.7,2.6-1.3,5.1-2,7.5c1.6,0.6,3.1,1.1,4.7,1.7c0.2,0.1,0.3,0.2,0.5,0.1c0.4-0.2,0.9-0.5,1-0.8c0.7-2.3,1.3-4.5,1.9-7
			c-1.7-0.5-3.3-0.9-4.8-1.3C183.9,374.4,183.5,374.3,183,374.3z M190.5,345.6c-1.2,4.8-1.6,4,2.2,5c3.3,0.9,2.8,1.3,4-3
			c1.1-4.2,1.1-4.2-2.1-5.1C191,341.7,191.7,341.2,190.5,345.6z M192.4,363.5c1.2-4.5,1.5-3.8-2-4.7c-0.1,0-0.1,0-0.2,0
			c-3.6-0.9-2.9-1.4-4.2,3.2c-1.1,4-1.1,4,2,4.8C191.3,367.6,191.3,367.6,192.4,363.5z M199.9,335.3c0.7-2.5,1.3-4.7,1.8-7
			c0.1-0.4-0.4-1.1-0.8-1.3c-1.3-0.5-2.6-0.9-4-1c-0.4-0.1-1.3,0.6-1.5,1.1c-0.6,1.8-1.1,3.6-1.5,5.5c-0.1,0.4,0.2,1.2,0.5,1.3
			C196.2,334.3,198,334.8,199.9,335.3z M42.2,280.3c1.1-4.1,1.1-4.1-2.1-4.9c-0.1,0-0.1,0-0.2,0c-3.4-0.9-2.8-1.2-4,3
			c-1.1,4.2-1.1,4.2,2.1,5.1C41.1,284.2,41.1,284.2,42.2,280.3z"/>
		<path d="M73,418.3c0.2-0.9,0.4-1.6,0.6-2.2c3.2-11.9,6.4-23.9,9.5-35.8c0.5-2,1.1-2.2,2.5-1.8c34.5,9.3,69.1,18.5,103.7,27.7
			c1.4,0.4,1.8,1,1.3,2.9c-2.3,8.3-4.4,16.5-6.7,24.8c-2.2,8.3-7.5,12.2-14,10.5c-31.7-8.4-63.4-16.9-95.1-25.4
			C74.3,418.7,73.8,418.5,73,418.3z M131,416.4c2.7,0.7,5.3,1.4,7.9,2.1c5,1.3,5,1.3,6.4-5.1c0-0.1,0-0.1,0.1-0.2
			c0.3-1,0.1-1.5-0.7-1.7c-3.4-0.9-6.9-1.9-10.3-2.7c-0.4-0.1-1.2,0.5-1.4,0.9C132.2,411.8,131.7,414,131,416.4z M156.3,423.1
			c4,1.1,7.8,2.1,11.7,3.1c0.3,0.1,1.1-0.5,1.2-1c0.6-1.8,1.1-3.6,1.5-5.5c0.1-0.5-0.3-1.4-0.6-1.5c-3.5-1-7.1-2-10.6-2.8
			c-0.3-0.1-1.1,0.5-1.2,0.9C157.5,418.5,156.9,420.6,156.3,423.1z"/>
		<path d="M66.5,416.6c-0.7-0.2-1.3-0.3-1.9-0.5c-18.9-5-37.8-10.1-56.8-15.1c-6.8-1.8-9.3-7.8-7-16.5c2.2-8.2,4.4-16.4,6.5-24.6
			c0.4-1.7,0.9-2.1,2.3-1.8c22,5.9,44.1,11.8,66.1,17.7c1,0.3,1.6,0.5,1.2,2.2c-3.3,12.3-6.6,24.7-9.9,37
			C67,415.5,66.8,415.9,66.5,416.6z M53.1,391.6c0.7-2.1-0.2-4.4-1.8-5c-1.7-0.6-3.6,0.7-4.3,2.9c-0.7,2.1,0.2,4.4,1.8,5
			C50.4,395,52.4,393.7,53.1,391.6z M21.6,383c-0.6,2.3,0.3,4.3,2.1,4.8c1.7,0.4,3.5-0.9,4.1-3.1c0.6-2.2-0.3-4.4-2-4.9
			C24,379.3,22.2,380.7,21.6,383z M40.5,387.9c0.6-2.2-0.3-4.4-2.1-4.8c-1.7-0.4-3.5,1-4.1,3.1c-0.6,2.2,0.3,4.4,2,4.9
			C38,391.6,39.9,390.2,40.5,387.9z"/>
		<path class="st9" d="M194.8,266.4c-1.9,6.2-4.8,11.7-8.7,16.3c-10.1,11.7-18,25.1-23.5,40.4c-3.1,8.7-5.7,17.6-8.7,26.4
			c-0.9,2.7-1.7,5.5-3,8c-4.8,9.3-14.7,11.6-20.3,4.6c-2.6-3.2-4.1-7.3-3.8-12.3c0.7-13.3,1.5-26.7,2-40c0.1-3.8-0.3-7.7-1-11.3
			c-1.2-6.3-7.8-7.4-11.9-2.3c-4.4,5.3-7.4,11.7-10.6,18c-4.5,9-8.9,18-13.6,26.8c-3.2,6-8,9-13.4,9c-4.8,0-8.2-2.9-10.1-8.1
			c-1.1-3-1.3-6.2-0.6-9.6c2-9.6,4-19.2,6-28.8c3.4-16.7,3.7-33,0.8-48.9c-1-5.6-1.5-11.3-0.3-17.3c2.7-12.9,8.9-22.4,19-27.6
			c9.9-5.1,18.9-3.4,26.4,4.1c2.5,2.5,4.5,5.8,6.4,9.1c7,12.1,18.1,15.3,30.2,8c5.9-3.6,11.9-5.9,18.2-5.5
			c13.6,0.8,23.7,15.9,21.8,33.1C195.8,261,195.3,263.7,194.8,266.4z M107.2,215.7c-11.8-3.2-24.6,8-26.8,23.4
			c-0.7,4.8-0.2,9.2,0.6,13.6c3.1,17.4,2.6,35.2-1.3,53.4c-1.9,8.6-3.7,17.3-5.5,25.9c-0.9,4.5,0.3,8,3.1,9.4
			c2.9,1.4,7.2-0.7,9.2-4.7c4.5-8.8,9-17.6,13.4-26.5c3.4-6.7,6.8-13.4,11.3-19.3c7.7-9.8,20.2-7.8,22.9,4c0.9,4.1,1.4,8.6,1.3,13
			c-0.2,8.8-0.9,17.7-1.4,26.5c-0.3,5.1-0.6,10.2-0.7,15.3c-0.1,4.1,2.7,7.7,5.6,8c3.3,0.2,6.1-2.3,7.6-6.9
			c2.1-6.4,4.2-12.8,6.2-19.2c3.6-11.6,7.9-22.7,13.8-33.1c4.7-8.2,10.2-15.5,16-22.6c7-8.6,9-21.2,5.2-30.9
			c-3.8-9.5-12.3-13.9-21.7-10.8c-3.4,1.2-6.7,3.3-10,5c-10.7,5.4-20.4,4.5-29-2.8c-3.5-3-6-7.2-8.4-11.5
			C115.9,220.2,112.1,217,107.2,215.7z"/>
		<path class="st9" d="M54.6,233.8c-2.9,10.7-5.7,21.4-8.6,32.1c-0.4,1.6-0.9,2.2-2.3,1.8c-4.7-1.3-4.7-1.2-3.1-7.1
			c5.4-20.1,10.7-40.1,16-60.2c0.5-2,1.1-2.6,2.7-2.1c4.3,1.3,4.3,1.2,2.8,6.8C59.7,214.7,57.1,224.2,54.6,233.8z"/>
		<path class="st9" d="M183,374.3c0.5,0.1,0.9,0.1,1.3,0.2c1.5,0.4,3.1,0.8,4.8,1.3c-0.7,2.5-1.2,4.8-1.9,7c-0.1,0.4-0.7,0.6-1,0.8
			c-0.1,0.1-0.3,0-0.5-0.1c-1.6-0.6-3.1-1.1-4.7-1.7C181.7,379.3,182.3,376.8,183,374.3z"/>
		<path class="st9" d="M190.5,345.6c1.3-4.5,0.6-4,4.1-3.1c3.2,0.8,3.3,0.9,2.1,5.1c-1.2,4.3-0.7,3.9-4,3
			C188.9,349.6,189.3,350.5,190.5,345.6z"/>
		<path class="st9" d="M192.4,363.5c-1.1,4.1-1.1,4.1-4.3,3.2c-3.1-0.8-3.1-0.8-2-4.8c1.3-4.6,0.6-4.1,4.2-3.2c0.1,0,0.1,0,0.2,0
			C193.9,359.7,193.6,359,192.4,363.5z"/>
		<path class="st9" d="M199.9,335.3c-1.9-0.5-3.7-0.9-5.4-1.5c-0.3-0.1-0.6-0.9-0.5-1.3c0.4-1.8,0.9-3.7,1.5-5.5
			c0.2-0.5,1-1.1,1.5-1.1c1.4,0.2,2.7,0.6,4,1c0.4,0.1,0.9,0.9,0.8,1.3C201.3,330.5,200.6,332.8,199.9,335.3z"/>
		<path class="st9" d="M42.2,280.3c-1.1,3.9-1.1,3.9-4.1,3.1c-3.2-0.9-3.2-0.9-2.1-5.1c1.1-4.2,0.6-3.9,4-3c0.1,0,0.1,0,0.2,0
			C43.3,276.2,43.3,276.2,42.2,280.3z"/>
		<path class="st9" d="M131,416.4c0.7-2.5,1.2-4.6,1.9-6.7c0.1-0.4,1-1,1.4-0.9c3.5,0.8,6.9,1.8,10.3,2.7c0.8,0.2,1.1,0.7,0.7,1.7
			c0,0.1,0,0.1-0.1,0.2c-1.4,6.5-1.4,6.5-6.4,5.1C136.3,417.8,133.8,417.2,131,416.4z"/>
		<path class="st9" d="M156.3,423.1c0.7-2.5,1.2-4.7,1.9-6.8c0.1-0.4,0.9-1,1.2-0.9c3.6,0.9,7.1,1.8,10.6,2.8c0.3,0.1,0.7,1,0.6,1.5
			c-0.4,1.8-0.9,3.7-1.5,5.5c-0.1,0.4-0.9,1-1.2,1C164.1,425.3,160.3,424.2,156.3,423.1z"/>
		<path class="st9" d="M53.1,391.6c-0.7,2.2-2.6,3.4-4.3,2.8c-1.7-0.6-2.5-2.8-1.8-5c0.7-2.1,2.6-3.4,4.3-2.9
			C52.9,387.2,53.7,389.5,53.1,391.6z"/>
		<path class="st9" d="M21.6,383c0.6-2.3,2.4-3.7,4.2-3.2c1.7,0.5,2.6,2.7,2,4.9c-0.6,2.2-2.4,3.5-4.1,3.1
			C22,387.3,21,385.2,21.6,383z"/>
		<path class="st9" d="M40.5,387.9c-0.6,2.2-2.4,3.6-4.2,3.2c-1.7-0.5-2.6-2.6-2-4.9c0.6-2.1,2.4-3.5,4.1-3.1
			C40.1,383.6,41,385.7,40.5,387.9z"/>
		<path d="M107.2,215.7c4.9,1.3,8.7,4.5,11.5,9.5c2.4,4.3,4.8,8.5,8.4,11.5c8.7,7.3,18.3,8.2,29,2.8c3.3-1.7,6.6-3.9,10-5
			c9.3-3.2,17.9,1.3,21.7,10.8c3.8,9.7,1.9,22.3-5.2,30.9c-5.8,7.1-11.3,14.4-16,22.6c-5.9,10.4-10.2,21.5-13.8,33.1
			c-2,6.4-4.1,12.8-6.2,19.2c-1.5,4.6-4.3,7.1-7.6,6.9c-2.9-0.2-5.6-3.8-5.6-8c0.1-5.1,0.5-10.2,0.7-15.3c0.5-8.8,1.2-17.7,1.4-26.5
			c0.1-4.4-0.4-8.9-1.3-13c-2.7-11.8-15.2-13.8-22.9-4c-4.6,5.8-7.9,12.5-11.3,19.3c-4.4,8.8-8.9,17.7-13.4,26.5
			c-2.1,4-6.3,6.1-9.2,4.7c-2.9-1.4-4.1-4.9-3.1-9.4c1.8-8.6,3.7-17.3,5.5-25.9c3.9-18.2,4.4-36,1.3-53.4c-0.8-4.4-1.3-8.8-0.6-13.6
			C82.6,223.7,95.4,212.4,107.2,215.7z M155.2,263.9c-0.3-1.9-0.6-3.7-0.7-5.5c-0.1-1.7-0.6-2.2-2.1-1.7c-6.2,2-12.3,2.2-18.2,0.8
			c-6.9-1.6-12.9-5.1-18.1-10.6c-0.3-0.4-1.3-0.7-1.5-0.4c-1.5,1.7-2.9,3.6-4.3,5.4C121.2,265.7,139.7,270.1,155.2,263.9z"/>
		<path class="st9" d="M155.2,263.9c-15.5,6.2-33.9,1.8-44.9-12c1.4-1.8,2.8-3.7,4.3-5.4c0.2-0.3,1.1,0,1.5,0.4
			c5.1,5.5,11.2,9,18.1,10.6c6,1.4,12,1.2,18.2-0.8c1.5-0.5,2,0,2.1,1.7C154.6,260.2,154.9,262,155.2,263.9z"/>
	</g>
</g>
<g>
	<path class="st10" d="M469,362.4c-2.2,0-4.2-0.4-5.9-1.1s-3.2-1.8-4.4-3.1c-1.2-1.3-2.1-2.9-2.7-4.7c-0.6-1.8-1-3.7-1-5.8
		c0-2.1,0.3-4,1-5.9s1.5-3.4,2.7-4.8s2.6-2.4,4.4-3.2c1.7-0.8,3.7-1.2,5.9-1.2c1.5,0,3,0.2,4.4,0.7c1.4,0.5,2.7,1.1,3.8,2
		c1.1,0.9,2,1.9,2.7,3.2c0.7,1.3,1.2,2.7,1.3,4.4h-6c-0.1-0.7-0.3-1.4-0.7-2c-0.4-0.6-0.8-1.1-1.4-1.6c-0.6-0.4-1.2-0.8-1.9-1.1
		c-0.7-0.3-1.4-0.4-2.2-0.4c-1.4,0-2.6,0.3-3.6,0.8c-1,0.5-1.8,1.3-2.4,2.2c-0.6,0.9-1.1,2-1.3,3.1c-0.3,1.2-0.4,2.4-0.4,3.6
		c0,1.2,0.1,2.3,0.4,3.5c0.3,1.1,0.7,2.1,1.3,3c0.6,0.9,1.4,1.6,2.4,2.2c1,0.5,2.2,0.8,3.6,0.8c1.9,0,3.4-0.6,4.5-1.7
		c1.1-1.2,1.7-2.7,2-4.6h6c-0.2,1.8-0.6,3.4-1.2,4.8c-0.7,1.4-1.5,2.6-2.6,3.6c-1.1,1-2.4,1.8-3.8,2.3
		C472.4,362.1,470.8,362.4,469,362.4z"/>
	<path class="st10" d="M489.7,333.4h21.2v5.2h-15v6.1h13.7v4.8h-13.7v6.9h15.3v5.2h-21.5V333.4z"/>
	<path class="st10" d="M519.4,333.4h12.8c1.8,0,3.3,0.3,4.5,0.8c1.2,0.5,2.3,1.2,3,2c0.8,0.8,1.3,1.8,1.7,2.9
		c0.4,1.1,0.5,2.2,0.5,3.4c0,1.2-0.2,2.3-0.5,3.4c-0.4,1.1-0.9,2.1-1.7,2.9c-0.8,0.8-1.8,1.5-3,2c-1.2,0.5-2.8,0.8-4.5,0.8h-6.5
		v10.2h-6.2V333.4z M530.5,346.7c0.7,0,1.4-0.1,2.1-0.2c0.7-0.1,1.2-0.3,1.7-0.6c0.5-0.3,0.9-0.7,1.2-1.3c0.3-0.6,0.5-1.3,0.5-2.2
		s-0.2-1.6-0.5-2.2c-0.3-0.6-0.7-1-1.2-1.3c-0.5-0.3-1.1-0.5-1.7-0.6c-0.7-0.1-1.3-0.2-2.1-0.2h-4.8v8.5H530.5z"/>
	<path class="st10" d="M549.8,333.4h13.3c1.3,0,2.6,0.1,3.7,0.4c1.1,0.2,2.1,0.6,2.9,1.2c0.8,0.5,1.4,1.3,1.8,2.2
		c0.4,0.9,0.7,2,0.7,3.3c0,1.4-0.3,2.6-1,3.6c-0.6,1-1.6,1.7-2.9,2.3c1.7,0.5,3,1.4,3.9,2.6c0.9,1.3,1.3,2.8,1.3,4.5
		c0,1.4-0.3,2.7-0.8,3.7c-0.6,1-1.3,1.9-2.2,2.6c-0.9,0.7-2,1.2-3.2,1.5c-1.2,0.3-2.4,0.5-3.7,0.5h-13.7V333.4z M562.4,344.9
		c1.1,0,2-0.3,2.7-0.8s1.1-1.4,1.1-2.6c0-0.7-0.1-1.2-0.4-1.6c-0.2-0.4-0.6-0.8-1-1c-0.4-0.2-0.9-0.4-1.4-0.5
		c-0.5-0.1-1.1-0.1-1.6-0.1h-5.8v6.6H562.4z M562.7,356.9c0.6,0,1.2-0.1,1.7-0.2c0.6-0.1,1-0.3,1.5-0.6c0.4-0.3,0.8-0.7,1-1.1
		c0.3-0.5,0.4-1.1,0.4-1.8c0-1.5-0.4-2.5-1.2-3.1c-0.8-0.6-1.9-0.9-3.3-0.9h-6.8v7.8H562.7z"/>
	<path class="st10" d="M581.7,333.4h21.2v5.2h-15v6.1h13.7v4.8H588v6.9h15.3v5.2h-21.5V333.4z"/>
	<path class="st10" d="M611.4,333.4h12.8c1.8,0,3.3,0.3,4.5,0.8c1.2,0.5,2.3,1.2,3,2c0.8,0.8,1.3,1.8,1.7,2.9
		c0.4,1.1,0.5,2.2,0.5,3.4c0,1.2-0.2,2.3-0.5,3.4c-0.4,1.1-0.9,2.1-1.7,2.9c-0.8,0.8-1.8,1.5-3,2c-1.2,0.5-2.8,0.8-4.5,0.8h-6.5
		v10.2h-6.2V333.4z M622.5,346.7c0.7,0,1.4-0.1,2.1-0.2c0.7-0.1,1.2-0.3,1.7-0.6c0.5-0.3,0.9-0.7,1.2-1.3c0.3-0.6,0.5-1.3,0.5-2.2
		s-0.2-1.6-0.5-2.2c-0.3-0.6-0.7-1-1.2-1.3c-0.5-0.3-1.1-0.5-1.7-0.6c-0.7-0.1-1.3-0.2-2.1-0.2h-4.8v8.5H622.5z"/>
</g>
</svg>
