<?xml version="1.0" encoding="utf-8"?>
<!-- Generator: Adobe Illustrator 24.0.1, SVG Export Plug-In . SVG Version: 6.00 Build 0)  -->
<svg version="1.1" id="Слой_1" xmlns="http://www.w3.org/2000/svg" xmlns:xlink="http://www.w3.org/1999/xlink" x="0px" y="0px"
	 viewBox="0 0 85 85" style="enable-background:new 0 0 85 85;" xml:space="preserve">
<style type="text/css">
	.st0{fill:#808080;}
</style>
<g>
	<path class="st0" d="M36.4,85c-8,0-15.9,0-23.9,0C5.9,85,1.1,80.9,0.1,74.4C0,73.8,0,73.3,0,72.7c0-16.1,0-32.1,0-48.2
		c0-6.9,5-12.2,11.9-12.3c6.1-0.1,12.3-0.1,18.4,0c3.5,0,6,2.7,5.9,6.2c-0.1,3.3-2.7,5.8-6.2,5.8c-5.7,0-11.3,0-17,0
		c-0.9,0-1.1,0.2-1.1,1.1c0,15.6,0,31.1,0,46.7c0,0.9,0.3,1.2,1.2,1.2c15.5,0,31,0,46.5,0c1.2,0,1.2,0,1.2-1.3c0-5.7,0-11.3,0-17
		c0-2.8,1.7-5,4.5-5.9c2.3-0.7,5.2,0.3,6.5,2.6c0.6,1,1,2.4,1,3.6c0.1,5.8,0.1,11.6,0,17.4c0,4.8-2.1,8.6-6.3,11.1
		C64.9,84.5,63,85,61,85C52.8,85,44.6,85,36.4,85C36.4,85,36.4,85,36.4,85z"/>
	<path class="st0" d="M64.2,12c-0.4,0-0.7,0-1.1,0c-4.8,0-9.5,0-14.3,0c-3.1,0-5.5-2-6.1-4.9c-0.7-3.6,2-7,5.6-7.1
		C50.9,0,53.5,0,56,0c7.5,0,15,0,22.4,0C82.6,0,85,2.4,85,6.5c0,9.9,0,19.8,0,29.8c0,3.1-2,5.5-4.8,6c-3.8,0.7-7.1-2.1-7.2-5.9
		c0-4.8,0-9.6,0-14.4c0-0.4,0-0.7,0-1.4c-0.4,0.4-0.7,0.5-0.9,0.8c-7.5,7.5-15,15-22.5,22.5c-5,5-10,10-15,15
		c-2.4,2.4-6.2,2.4-8.5,0.1c-2.4-2.4-2.4-6.1,0.1-8.5c8.1-8.2,16.3-16.3,24.4-24.5c4.3-4.3,8.7-8.7,13-13c0.2-0.2,0.4-0.4,0.6-0.6
		C64.2,12.2,64.2,12.1,64.2,12z"/>
</g>
</svg>
