<?xml version="1.0" encoding="utf-8"?>
<!-- Generator: Adobe Illustrator 24.0.1, SVG Export Plug-In . SVG Version: 6.00 Build 0)  -->
<svg version="1.1" id="Слой_1" xmlns="http://www.w3.org/2000/svg" xmlns:xlink="http://www.w3.org/1999/xlink" x="0px" y="0px"
	 viewBox="0 0 85 85.2" style="enable-background:new 0 0 85 85.2;" xml:space="preserve">
<style type="text/css">
	.st0{fill:#808080;}
</style>
<g>
	<path class="st0" d="M35.7,41.7c0.7,2,1.6,3.6,3,5c4.2,4.1,11.2,4.2,15.4,0.1c5.5-5.5,11.1-10.9,16.5-16.5
		c3.1-3.2,3.9-7.1,2.4-11.3c-1.4-4.2-4.5-6.7-8.8-7.4c-3.9-0.7-7.2,0.6-9.9,3.3c-1.7,1.7-3.3,3.4-5,5c-0.2,0.2-0.7,0.3-0.9,0.2
		c-4.4-1.5-8.8-2-13.4-1.4c-0.1,0-0.2,0-0.4,0c0.2-0.2,0.2-0.3,0.3-0.4c4.1-4,8-8.2,12.2-12.1c6.6-6.1,14.3-7.8,22.8-4.9
		c8.4,2.9,13.5,9,15,17.8c1.3,7.5-1,14.2-6.4,19.6C72.9,44.2,67.4,49.6,62,55c-8.5,8.4-23,8.1-31.4-0.5c-1.2-1.2-2.1-2.6-3.1-3.9
		c-0.3-0.4-0.3-0.7,0.1-1c2.3-2.2,4.5-4.5,6.8-6.8C34.7,42.4,35.2,42.1,35.7,41.7z"/>
	<path class="st0" d="M50.6,66.4c-0.1,0.2-0.2,0.3-0.3,0.3c-4.1,4.1-8.1,8.4-12.4,12.3c-6.5,5.9-14.2,7.6-22.5,4.8
		c-8.3-2.7-13.3-8.7-15-17.2C-1,59,1.1,52.2,6.5,46.7c5.4-5.6,10.9-11.2,16.6-16.5c9.1-8.7,23.4-8.1,32,1.1c0.9,1,1.7,2.2,2.5,3.4
		c0.3,0.3,0.3,0.6-0.1,1c-2.4,2.3-4.7,4.7-7.1,7.1c-0.3,0.3-0.7,0.5-1.1,0.7c-0.1-0.2-0.2-0.3-0.2-0.4c-2.5-7.7-12.4-10.4-18.7-4.2
		C25.2,44,19.9,49.2,14.7,54.5c-3.1,3.2-4.2,7-2.9,11.3c1.3,4.2,4.1,6.8,8.4,7.7c4.1,0.9,7.6-0.3,10.5-3.2c1.7-1.7,3.4-3.4,5.1-5
		c0.2-0.2,0.7-0.3,1-0.2c4.4,1.6,8.9,2,13.5,1.4C50.3,66.4,50.4,66.4,50.6,66.4z"/>
</g>
</svg>
