<?xml version="1.0" encoding="utf-8"?>
<!-- Generator: Adobe Illustrator 24.0.1, SVG Export Plug-In . SVG Version: 6.00 Build 0)  -->
<svg version="1.1" id="Слой_1" xmlns="http://www.w3.org/2000/svg" xmlns:xlink="http://www.w3.org/1999/xlink" x="0px" y="0px"
	 viewBox="0 0 104.7 177.2" style="enable-background:new 0 0 104.7 177.2;" xml:space="preserve">
<style type="text/css">
	.st0{fill:#D9D9D9;}
	.st1{fill:#454545;}
</style>
<g id="XungKGBNEN">
	<g id="sc-itMJkM6">
		<g id="sc-dxtBLK6">
			<g id="sc-hJVpLM6">
				<g id="sc-hLeiDn6">
					<g transform="matrix(0.0559888 0 0 0.00608235 97.7019 222.734)">
						<path class="st0" d="M-1595.3-8295.4c0-442.7,358.8-801.5,801.5-801.5S7.7-8738,7.7-8295.4c0,442.7-358.8,801.5-801.5,801.5
							S-1595.3-7852.6-1595.3-8295.4z"/>
					</g>
				</g>
			</g>
		</g>
	</g>
</g>
<path class="st1" d="M52.4,0C23.4,0,0,23.4,0,52.4c0,16.1,7.3,30.5,18.7,40.1c1.7,2.3,3.6,4.6,5.6,6.9C39.7,119.7,51,138,52.7,157.9
	c5.6-22.8,18-43.5,31.1-63.6c12.7-9.6,21-24.8,21-41.9C104.8,23.4,81.3,0,52.4,0z M51.8,84.4c-17.9,0-32.4-14.5-32.4-32.4
	c0-17.9,14.5-32.4,32.4-32.4c17.9,0,32.4,14.5,32.4,32.4C84.2,69.9,69.7,84.4,51.8,84.4z"/>
</svg>
