<svg id="Слой_1" data-name="Слой 1" xmlns="http://www.w3.org/2000/svg" viewBox="0 0 133.5 43.58"><defs><style>.cls-1{fill:#07b641;}.cls-2{fill:#a803fb;}.cls-3{fill:#fbfb0d;}.cls-4{fill:#013eb5;}.cls-5{fill:#d50709;}.cls-6{fill:#7f7f7f;}</style></defs><title>LogoMyRay_Lab2</title><rect class="cls-1" y="22.52" width="21.06" height="21.06"/><rect class="cls-2" width="21.06" height="21.06"/><rect class="cls-3" x="22.58" y="22.2" width="21" height="21.38"/><rect class="cls-4" x="11.22" y="10.98" width="21.14" height="21.63"/><path class="cls-5" d="M22.43,10.61c0-3.08,0-6.15.08-9.15V0H43.58V21.08H29.78L22.48,21V19.6Z"/><path d="M49.53,16.23h4.12l1.59,6.17,1.58-6.17h4.12V26.37H58.38V18.64l-2,7.73H54.07l-2-7.73v7.73H49.53Z"/><path d="M62,19h3l1.52,4.9,1.4-4.9H70.7l-3,7.86a4.88,4.88,0,0,1-1,1.81,3.29,3.29,0,0,1-2.24.67,16.83,16.83,0,0,1-1.88-.17l-.22-2a4.74,4.74,0,0,0,1.35.2,1.37,1.37,0,0,0,.81-.23,1.75,1.75,0,0,0,.52-.82Z"/><path d="M71.64,26.37V16.23h5.23a7.22,7.22,0,0,1,2.22.25,2.37,2.37,0,0,1,1.24.92,2.82,2.82,0,0,1,.47,1.69,2.88,2.88,0,0,1-.36,1.46,2.82,2.82,0,0,1-1,1,3.54,3.54,0,0,1-1.1.4,2.73,2.73,0,0,1,.81.38,2.85,2.85,0,0,1,.51.53,4.38,4.38,0,0,1,.43.63l1.52,2.94H78.08l-1.68-3.1a2.29,2.29,0,0,0-.56-.78,1.27,1.27,0,0,0-.77-.23h-.28v4.11Zm3.15-6h1.32a4.64,4.64,0,0,0,.83-.14.82.82,0,0,0,.51-.32,1,1,0,0,0,.2-.59.92.92,0,0,0-.31-.75,1.84,1.84,0,0,0-1.17-.26H74.79Z"/><path d="M85,21.4l-2.69-.31A3.35,3.35,0,0,1,82.75,20a2.55,2.55,0,0,1,.83-.7,3.11,3.11,0,0,1,1.07-.34,8.89,8.89,0,0,1,1.46-.11,10.3,10.3,0,0,1,2,.14,2.56,2.56,0,0,1,1.28.59,2.07,2.07,0,0,1,.57.88,3.14,3.14,0,0,1,.2,1.09v3.25a4.43,4.43,0,0,0,.07.81,3,3,0,0,0,.29.75H87.91a2.39,2.39,0,0,1-.2-.43,2.46,2.46,0,0,1-.1-.47,3.61,3.61,0,0,1-1.1.76,4.5,4.5,0,0,1-1.74.31,2.94,2.94,0,0,1-2-.61,2,2,0,0,1-.68-1.5,2,2,0,0,1,.49-1.31,3.27,3.27,0,0,1,1.82-.8c1-.21,1.74-.36,2-.45a9,9,0,0,0,1-.33,1,1,0,0,0-.22-.73,1,1,0,0,0-.75-.21,1.93,1.93,0,0,0-1,.22A1.27,1.27,0,0,0,85,21.4Zm2.44,1.49c-.39.13-.79.26-1.21.36a2.75,2.75,0,0,0-1.09.45.72.72,0,0,0-.23.52.7.7,0,0,0,.23.54,1,1,0,0,0,.68.21,1.8,1.8,0,0,0,.88-.22,1.4,1.4,0,0,0,.57-.56,2,2,0,0,0,.17-.86Z"/><path d="M91.08,19h3l1.51,4.9L97,19h2.77l-2.91,7.86a4.67,4.67,0,0,1-1,1.81,3.26,3.26,0,0,1-2.23.67,16.83,16.83,0,0,1-1.88-.17l-.23-2a4.81,4.81,0,0,0,1.36.2,1.37,1.37,0,0,0,.81-.23,1.92,1.92,0,0,0,.52-.82Z"/><path class="cls-6" d="M106.49,16.28h3.13v7.64h4.89v2.5h-8Z"/><path class="cls-6" d="M118.32,21.45l-2.69-.28a3,3,0,0,1,.44-1.11,2.43,2.43,0,0,1,.82-.71A3.41,3.41,0,0,1,118,19a8.09,8.09,0,0,1,1.47-.11,10.3,10.3,0,0,1,2,.14,2.56,2.56,0,0,1,1.28.59,2.07,2.07,0,0,1,.57.88,3.4,3.4,0,0,1,.21,1.09v3.25a3.69,3.69,0,0,0,.06.81,4,4,0,0,0,.29.75H121.2A2.44,2.44,0,0,1,121,26a3.94,3.94,0,0,1-.1-.47,3.5,3.5,0,0,1-1.1.76,4.5,4.5,0,0,1-1.74.31,2.94,2.94,0,0,1-2-.61,1.94,1.94,0,0,1-.68-1.5,2,2,0,0,1,.53-1.39,3.24,3.24,0,0,1,1.81-.8c1.06-.22,1.74-.36,2.06-.45a9.06,9.06,0,0,0,1-.34,1,1,0,0,0-.21-.72,1.09,1.09,0,0,0-.76-.21,1.84,1.84,0,0,0-1,.22A1.23,1.23,0,0,0,118.32,21.45Zm2.44,1.48c-.38.14-.79.26-1.21.37a2.65,2.65,0,0,0-1.08.45.69.69,0,0,0-.24.52.74.74,0,0,0,.23.54,1,1,0,0,0,.68.21,1.81,1.81,0,0,0,.88-.23,1.32,1.32,0,0,0,.57-.55,1.84,1.84,0,0,0,.17-.86Z"/><path class="cls-6" d="M125.36,16.28h2.84v3.51a2.69,2.69,0,0,1,1-.66,3.07,3.07,0,0,1,3.41.78,4,4,0,0,1,.88,2.77,5.33,5.33,0,0,1-.4,2.12,3.05,3.05,0,0,1-1.15,1.29,2.94,2.94,0,0,1-1.58.46,3,3,0,0,1-1.35-.32,3.73,3.73,0,0,1-1-.94v1.09h-2.63Zm2.82,6.44a2.12,2.12,0,0,0,.36,1.38,1.15,1.15,0,0,0,.9.42,1,1,0,0,0,.85-.41,2.2,2.2,0,0,0,.34-1.41,2,2,0,0,0-.33-1.28,1,1,0,0,0-.82-.41,1.17,1.17,0,0,0-.94.42,2,2,0,0,0-.36,1.29Z"/></svg>