<svg id="Слой_1" data-name="Слой 1" xmlns="http://www.w3.org/2000/svg" xmlns:xlink="http://www.w3.org/1999/xlink" viewBox="0 0 184.09 43.58"><defs><style>.cls-1{fill:#07b641;}.cls-2{fill:#a803fb;}.cls-3{fill:#fbfb0d;}.cls-4{fill:#013eb5;}.cls-5{fill:#d50709;}.cls-6{fill:#7f7f7f;}.cls-7{fill:#a702fc;}.cls-8{fill:url(#Безымянный_градиент_5);}</style><linearGradient id="Безымянный_градиент_5" x1="183.89" y1="24.11" x2="47.24" y2="24.11" gradientUnits="userSpaceOnUse"><stop offset="0" stop-color="#fff"/><stop offset="1"/></linearGradient></defs><title>LogoMyRay_Lab</title><rect class="cls-1" y="22.52" width="21.06" height="21.06"/><rect class="cls-2" width="21.06" height="21.06"/><rect class="cls-3" x="22.58" y="22.2" width="21" height="21.38"/><rect class="cls-4" x="11.22" y="10.98" width="21.14" height="21.63"/><path class="cls-5" d="M22.43,10.61c0-3.08,0-6.15.08-9.15V0H43.58V21.08H29.78L22.48,21V19.6Z"/><path d="M49.53,8.14h4.12l1.59,6.17,1.58-6.17h4.12V18.28H58.38V10.55l-2,7.73H54.07l-2-7.73v7.73H49.53Z"/><path d="M62,10.93h3l1.52,4.9,1.4-4.9h2.78L67.7,18.79a4.81,4.81,0,0,1-1,1.81,3.28,3.28,0,0,1-2.24.67,16.65,16.65,0,0,1-1.88-.17l-.22-2a4.4,4.4,0,0,0,1.35.2,1.34,1.34,0,0,0,.81-.23,1.76,1.76,0,0,0,.52-.82Z"/><path d="M71.64,18.28V8.14h5.23a7.43,7.43,0,0,1,2.22.25,2.36,2.36,0,0,1,1.24.92A2.83,2.83,0,0,1,80.8,11a2.82,2.82,0,0,1-.36,1.46,2.76,2.76,0,0,1-1,1,3.48,3.48,0,0,1-1.1.4,3.09,3.09,0,0,1,.81.38,2.9,2.9,0,0,1,.51.53,4.43,4.43,0,0,1,.43.63l1.52,2.94H78.08l-1.68-3.1a2.43,2.43,0,0,0-.56-.78,1.29,1.29,0,0,0-.77-.23h-.28v4.11Zm3.15-6h1.32a4.9,4.9,0,0,0,.83-.14.82.82,0,0,0,.51-.32,1,1,0,0,0,.2-.59.92.92,0,0,0-.31-.75,1.87,1.87,0,0,0-1.17-.26H74.79Z"/><path d="M85,13.31,82.31,13a3.21,3.21,0,0,1,.44-1.11,2.53,2.53,0,0,1,.83-.7,3.28,3.28,0,0,1,1.07-.34,9.52,9.52,0,0,1,1.46-.11,11.18,11.18,0,0,1,2,.14,2.57,2.57,0,0,1,1.28.59,2.1,2.1,0,0,1,.57.88,3.16,3.16,0,0,1,.2,1.09v3.25a4.11,4.11,0,0,0,.07.81,3.2,3.2,0,0,0,.29.75H87.91a2.85,2.85,0,0,1-.2-.43,2.3,2.3,0,0,1-.1-.47,3.58,3.58,0,0,1-1.1.76,4.47,4.47,0,0,1-1.74.31,2.9,2.9,0,0,1-2-.61,2,2,0,0,1-.68-1.5A2,2,0,0,1,82.58,15a3.32,3.32,0,0,1,1.82-.8c1-.21,1.74-.36,2-.45a9.7,9.7,0,0,0,1-.33,1,1,0,0,0-.22-.73,1.05,1.05,0,0,0-.75-.21,2,2,0,0,0-1,.22A1.26,1.26,0,0,0,85,13.31Zm2.44,1.49c-.39.13-.79.26-1.21.36a2.75,2.75,0,0,0-1.09.45.73.73,0,0,0-.23.52.68.68,0,0,0,.23.54,1,1,0,0,0,.68.21,1.8,1.8,0,0,0,.88-.22,1.4,1.4,0,0,0,.57-.56,1.93,1.93,0,0,0,.17-.86Z"/><path d="M91.08,10.93h3l1.51,4.9L97,10.93h2.77l-2.91,7.86a4.67,4.67,0,0,1-1,1.81,3.25,3.25,0,0,1-2.23.67,16.28,16.28,0,0,1-1.88-.17l-.23-2a4.46,4.46,0,0,0,1.36.2,1.36,1.36,0,0,0,.81-.23,1.84,1.84,0,0,0,.52-.82Z"/><path class="cls-6" d="M106.49,8.19h3.13v7.64h4.89v2.5h-8Z"/><path class="cls-6" d="M118.32,13.36l-2.69-.28a3,3,0,0,1,.44-1.11,2.41,2.41,0,0,1,.82-.71,3.67,3.67,0,0,1,1.07-.33,8.45,8.45,0,0,1,1.47-.11,11.13,11.13,0,0,1,2,.14,2.57,2.57,0,0,1,1.28.59,2.1,2.1,0,0,1,.57.88,3.18,3.18,0,0,1,.21,1.09v3.25a4.32,4.32,0,0,0,.06.81,3.72,3.72,0,0,0,.29.75h-2.64a2.29,2.29,0,0,1-.21-.43,3.27,3.27,0,0,1-.1-.47,3.47,3.47,0,0,1-1.1.76,4.47,4.47,0,0,1-1.74.31,2.92,2.92,0,0,1-2-.61,1.93,1.93,0,0,1-.68-1.5A2,2,0,0,1,115.9,15a3.29,3.29,0,0,1,1.81-.8c1.06-.22,1.74-.36,2.06-.45a8.34,8.34,0,0,0,1-.34,1,1,0,0,0-.21-.72,1.1,1.1,0,0,0-.76-.21,1.9,1.9,0,0,0-1,.22A1.22,1.22,0,0,0,118.32,13.36Zm2.44,1.48c-.38.14-.79.26-1.21.37a2.68,2.68,0,0,0-1.08.45.69.69,0,0,0-.24.52.71.71,0,0,0,.23.54,1,1,0,0,0,.68.21,1.68,1.68,0,0,0,.88-.23,1.32,1.32,0,0,0,.57-.55,1.81,1.81,0,0,0,.17-.86Z"/><path class="cls-6" d="M125.36,8.19h2.84V11.7a2.71,2.71,0,0,1,1-.66,3,3,0,0,1,1.19-.22,2.89,2.89,0,0,1,2.22,1,4,4,0,0,1,.88,2.77,5.34,5.34,0,0,1-.4,2.12A3,3,0,0,1,131.94,18a2.83,2.83,0,0,1-1.58.46,2.92,2.92,0,0,1-1.35-.32,3.69,3.69,0,0,1-1-.94v1.09h-2.63Zm2.82,6.44a2.11,2.11,0,0,0,.36,1.38,1.14,1.14,0,0,0,.9.42,1,1,0,0,0,.85-.41,2.24,2.24,0,0,0,.34-1.41,2,2,0,0,0-.33-1.28,1,1,0,0,0-.82-.41,1.2,1.2,0,0,0-.94.42A2,2,0,0,0,128.18,14.63Z"/><path class="cls-7" d="M49.41,29.69H53v5.07h-1V30.55H50.41v2.17A9.2,9.2,0,0,1,50.35,34a.9.9,0,0,1-.31.58,1.12,1.12,0,0,1-.75.21l-.65,0V34h.23a.72.72,0,0,0,.43-.09c.07-.05.11-.19.11-.42V29.69Z"/><path class="cls-7" d="M54.91,32.21,54,32.05a1.4,1.4,0,0,1,.51-.79A1.87,1.87,0,0,1,55.62,31a2.39,2.39,0,0,1,1,.15,1,1,0,0,1,.45.39,2.12,2.12,0,0,1,.13.87v1.14a4.14,4.14,0,0,0,0,.71,2.27,2.27,0,0,0,.18.49h-1a2.68,2.68,0,0,1-.1-.28.5.5,0,0,0,0-.12,2.22,2.22,0,0,1-.53.37,1.58,1.58,0,0,1-.61.12,1.25,1.25,0,0,1-.89-.31,1,1,0,0,1-.33-.78,1,1,0,0,1,.56-.93,3.37,3.37,0,0,1,.78-.23,5.26,5.26,0,0,0,.94-.23v-.1a.48.48,0,0,0-.14-.4.81.81,0,0,0-.52-.12.66.66,0,0,0-.4.1A.71.71,0,0,0,54.91,32.21Zm1.3.79-.59.15a1.69,1.69,0,0,0-.53.17.39.39,0,0,0-.19.34.47.47,0,0,0,.15.35.53.53,0,0,0,.39.15.86.86,0,0,0,.5-.17.59.59,0,0,0,.23-.32,1.74,1.74,0,0,0,0-.48Z"/><path class="cls-7" d="M60.88,29.57h.66a1.05,1.05,0,0,1-.23.67c-.13.15-.45.23-1,.23H60a2.52,2.52,0,0,0-.75.1.93.93,0,0,0-.48.4,2,2,0,0,0-.19.95,1.51,1.51,0,0,1,.56-.61,1.64,1.64,0,0,1,2,.37,1.88,1.88,0,0,1-1.4,3.18,1.93,1.93,0,0,1-1-.28,1.53,1.53,0,0,1-.63-.77,4.74,4.74,0,0,1-.19-1.61,3,3,0,0,1,.48-1.9,2.12,2.12,0,0,1,1.7-.58h.49C60.75,29.71,60.84,29.67,60.88,29.57Zm-2,3.38a1.18,1.18,0,0,0,.25.8.78.78,0,0,0,.61.29.79.79,0,0,0,.64-.3,1.36,1.36,0,0,0,0-1.57.8.8,0,0,0-1.25,0A1.13,1.13,0,0,0,58.93,33Z"/><path class="cls-7" d="M62.28,32.87a2,2,0,0,1,.24-.93,1.62,1.62,0,0,1,.67-.7,2.14,2.14,0,0,1,1-.23,1.85,1.85,0,0,1,1.37.54,1.88,1.88,0,0,1,.53,1.37,1.9,1.9,0,0,1-.54,1.38,1.84,1.84,0,0,1-1.35.55,2.2,2.2,0,0,1-1-.23,1.59,1.59,0,0,1-.69-.67A2.24,2.24,0,0,1,62.28,32.87Zm1,.06a1.17,1.17,0,0,0,.26.83.84.84,0,0,0,1.27,0,1.47,1.47,0,0,0,0-1.67.84.84,0,0,0-1.27,0A1.18,1.18,0,0,0,63.28,32.93Z"/><path class="cls-7" d="M66.8,31.09h.91v.54a1.3,1.3,0,0,1,.48-.45,1.26,1.26,0,0,1,.67-.17,1.37,1.37,0,0,1,1.08.5,2,2,0,0,1,.45,1.4,2.1,2.1,0,0,1-.45,1.43,1.4,1.4,0,0,1-1.09.51,1.23,1.23,0,0,1-.55-.12,1.88,1.88,0,0,1-.52-.42v1.85h-1Zm1,1.77a1.45,1.45,0,0,0,.24.92.77.77,0,0,0,.6.3.7.7,0,0,0,.56-.28,1.78,1.78,0,0,0,0-1.75.75.75,0,0,0-.58-.28.77.77,0,0,0-.59.28A1.24,1.24,0,0,0,67.77,32.86Z"/><path class="cls-7" d="M71.89,32.21,71,32.05a1.36,1.36,0,0,1,.51-.79A1.87,1.87,0,0,1,72.6,31a2.43,2.43,0,0,1,1,.15.9.9,0,0,1,.44.39,2,2,0,0,1,.13.87v1.14a3.92,3.92,0,0,0,.05.71,1.84,1.84,0,0,0,.18.49h-1l-.09-.28,0-.12a1.88,1.88,0,0,1-.53.37,1.53,1.53,0,0,1-.6.12,1.29,1.29,0,0,1-.9-.31,1,1,0,0,1-.33-.78,1,1,0,0,1,.15-.55,1,1,0,0,1,.42-.38,3.42,3.42,0,0,1,.77-.23,5.43,5.43,0,0,0,1-.23v-.1a.51.51,0,0,0-.14-.4.82.82,0,0,0-.52-.12.71.71,0,0,0-.41.1A.77.77,0,0,0,71.89,32.21Zm1.3.79-.59.15a1.69,1.69,0,0,0-.53.17.39.39,0,0,0-.19.34A.47.47,0,0,0,72,34a.53.53,0,0,0,.39.15.88.88,0,0,0,.5-.17.64.64,0,0,0,.23-.32,1.74,1.74,0,0,0,0-.48Z"/><path class="cls-7" d="M74.67,31.09H78v.78H76.82v2.89h-1V31.87H74.67Z"/><path class="cls-7" d="M78.25,32.87a2,2,0,0,1,.24-.93,1.64,1.64,0,0,1,.68-.7,2.11,2.11,0,0,1,1-.23,1.82,1.82,0,0,1,1.36.54,1.85,1.85,0,0,1,.54,1.37,1.9,1.9,0,0,1-.54,1.38,1.85,1.85,0,0,1-1.36.55,2.19,2.19,0,0,1-1-.23,1.62,1.62,0,0,1-.7-.67A2.24,2.24,0,0,1,78.25,32.87Zm1,.06a1.21,1.21,0,0,0,.26.83.85.85,0,0,0,1.28,0,1.47,1.47,0,0,0,0-1.67.85.85,0,0,0-1.28,0A1.22,1.22,0,0,0,79.25,32.93Z"/><path class="cls-7" d="M82.78,31.09h.91v.54a1.23,1.23,0,0,1,.48-.45,1.25,1.25,0,0,1,.66-.17,1.39,1.39,0,0,1,1.09.5,2,2,0,0,1,.45,1.4,2.1,2.1,0,0,1-.45,1.43,1.41,1.41,0,0,1-1.09.51,1.28,1.28,0,0,1-.56-.12,2.22,2.22,0,0,1-.52-.42v1.85h-1Zm1,1.77a1.39,1.39,0,0,0,.25.92.74.74,0,0,0,.6.3.72.72,0,0,0,.56-.28,1.38,1.38,0,0,0,.23-.89,1.32,1.32,0,0,0-.24-.86.72.72,0,0,0-.57-.28.74.74,0,0,0-.59.28A1.19,1.19,0,0,0,83.74,32.86Z"/><path class="cls-7" d="M87.14,30.59v-.9h1v.9Zm0,4.17V31.09h1v3.67Z"/><path class="cls-7" d="M92.25,31.09v3.67h-1V33.24H91.2a.92.92,0,0,0-.46.08,1.07,1.07,0,0,0-.33.34l-.06.08-.64,1H88.58l.69-1.06a1.19,1.19,0,0,1,.54-.53.9.9,0,0,1-.66-.31,1.19,1.19,0,0,1-.08-1.34.87.87,0,0,1,.44-.34,2.88,2.88,0,0,1,.83-.09Zm-1,.63h-.7a1.05,1.05,0,0,0-.54.1.44.44,0,0,0-.15.37.41.41,0,0,0,.17.36,1.21,1.21,0,0,0,.58.11h.64Z"/><path class="cls-7" d="M95.23,29.69h1v2.16a.64.64,0,0,0,.46-.18,3.31,3.31,0,0,0,.38-.79,2.16,2.16,0,0,1,.63-1,2.08,2.08,0,0,1,1-.2h.15v.75h-.14a1,1,0,0,0-.46.08.56.56,0,0,0-.24.24,4.72,4.72,0,0,0-.27.65,2.61,2.61,0,0,1-.2.44,1,1,0,0,1-.38.33,1.15,1.15,0,0,1,.56.39,5.51,5.51,0,0,1,.49.83L99,34.76h-1.2l-.61-1.31a.41.41,0,0,0-.05-.11,1,1,0,0,1-.13-.23,1.38,1.38,0,0,0-.33-.47.72.72,0,0,0-.38-.1v2.22h-1Z"/><path class="cls-7" d="M99.31,32.87a2,2,0,0,1,.24-.93,1.59,1.59,0,0,1,.68-.7,2.07,2.07,0,0,1,1-.23,1.85,1.85,0,0,1,1.37.54,1.88,1.88,0,0,1,.53,1.37,1.9,1.9,0,0,1-.54,1.38,1.82,1.82,0,0,1-1.35.55,2.12,2.12,0,0,1-1-.23,1.57,1.57,0,0,1-.7-.67A2.24,2.24,0,0,1,99.31,32.87Zm1,.06a1.17,1.17,0,0,0,.26.83.84.84,0,0,0,1.27,0,1.47,1.47,0,0,0,0-1.67.84.84,0,0,0-1.27,0A1.18,1.18,0,0,0,100.31,32.93Z"/><path class="cls-7" d="M103.8,31.09H105l.92,2.56.92-2.56H108v3.67h-.83V32.34l-.9,2.42h-.83l-.85-2.42v2.42h-.83Z"/><path class="cls-7" d="M109,31.09h3.27v3.67h-1V31.87H110v2.89h-1Z"/><path class="cls-7" d="M113.27,29.71h1v.69a2.45,2.45,0,0,1-.07.67.92.92,0,0,1-.28.43,1.42,1.42,0,0,1-.51.31l-.19-.4a1,1,0,0,0,.42-.27.86.86,0,0,0,.13-.46h-.47Z"/><path class="cls-7" d="M115.25,31.09h1v1.48H117a1.71,1.71,0,0,1,.54-1.13,1.9,1.9,0,0,1,2.49.07,2,2,0,0,1,.5,1.44,2.24,2.24,0,0,1-.19,1,1.52,1.52,0,0,1-.56.67,1.79,1.79,0,0,1-1,.26,1.68,1.68,0,0,1-1.31-.48,1.65,1.65,0,0,1-.47-1h-.77v1.42h-1Zm3.5.67a.68.68,0,0,0-.59.26,1.49,1.49,0,0,0-.19.83,1.7,1.7,0,0,0,.2,1,.74.74,0,0,0,.61.26.63.63,0,0,0,.56-.29,1.64,1.64,0,0,0,.18-.86,1.52,1.52,0,0,0-.2-.94A.69.69,0,0,0,118.75,31.76Z"/><path class="cls-7" d="M120.7,31.09H124v.78h-1.18v2.89h-1V31.87H120.7Z"/><path class="cls-7" d="M126.74,33.59l1,.17a1.59,1.59,0,0,1-.59.81,1.74,1.74,0,0,1-1,.28,1.63,1.63,0,0,1-1.42-.63,2.06,2.06,0,0,1-.37-1.27,2,2,0,0,1,.48-1.43A1.59,1.59,0,0,1,126,31a1.61,1.61,0,0,1,1.29.54,2.39,2.39,0,0,1,.46,1.66h-2.44a1,1,0,0,0,.24.67.73.73,0,0,0,.56.24.6.6,0,0,0,.38-.12A.89.89,0,0,0,126.74,33.59Zm.05-1a1,1,0,0,0-.22-.64.63.63,0,0,0-.5-.22.7.7,0,0,0-.53.23.92.92,0,0,0-.2.63Z"/><path class="cls-7" d="M128.52,31.09h.91v.54a1.23,1.23,0,0,1,.48-.45,1.25,1.25,0,0,1,.66-.17,1.39,1.39,0,0,1,1.09.5,2,2,0,0,1,.45,1.4,2.1,2.1,0,0,1-.45,1.43,1.41,1.41,0,0,1-1.09.51,1.28,1.28,0,0,1-.56-.12,2.22,2.22,0,0,1-.52-.42v1.85h-1Zm1,1.77a1.39,1.39,0,0,0,.25.92.74.74,0,0,0,.6.3.72.72,0,0,0,.56-.28,1.78,1.78,0,0,0,0-1.75.75.75,0,0,0-1.17,0A1.19,1.19,0,0,0,129.48,32.86Z"/><path class="cls-7" d="M132.84,31.09h1v1.34h1.39V31.09h1v3.67h-1V33.22h-1.39v1.54h-1Z"/><path class="cls-7" d="M136.93,32.87a2,2,0,0,1,.24-.93,1.64,1.64,0,0,1,.68-.7,2.11,2.11,0,0,1,1-.23,1.82,1.82,0,0,1,1.36.54,1.85,1.85,0,0,1,.54,1.37,1.9,1.9,0,0,1-.54,1.38,1.85,1.85,0,0,1-1.36.55,2.19,2.19,0,0,1-1-.23,1.57,1.57,0,0,1-.7-.67A2.24,2.24,0,0,1,136.93,32.87Zm1,.06a1.21,1.21,0,0,0,.26.83.85.85,0,0,0,1.28,0,1.47,1.47,0,0,0,0-1.67.85.85,0,0,0-1.28,0A1.22,1.22,0,0,0,137.93,32.93Z"/><path class="cls-7" d="M140.81,30.44V29.6h.84v.84Zm.68,4.32V31.09h1v3.67Zm.81-4.32V29.6h.84v.84Z"/><path class="cls-7" d="M146.6,34.76V30.55h-1.51v-.86h4v.86h-1.5v4.21Z"/><path class="cls-7" d="M149.11,32.87a2,2,0,0,1,.24-.93,1.62,1.62,0,0,1,.67-.7,2.11,2.11,0,0,1,1-.23,1.85,1.85,0,0,1,1.37.54,1.88,1.88,0,0,1,.53,1.37,1.9,1.9,0,0,1-.54,1.38,1.84,1.84,0,0,1-1.35.55,2.2,2.2,0,0,1-1-.23,1.59,1.59,0,0,1-.69-.67A2.24,2.24,0,0,1,149.11,32.87Zm1,.06a1.21,1.21,0,0,0,.26.83.82.82,0,0,0,.64.29.79.79,0,0,0,.64-.29,1.47,1.47,0,0,0,0-1.67.82.82,0,0,0-.64-.29.85.85,0,0,0-.64.29A1.22,1.22,0,0,0,150.1,32.93Z"/><path class="cls-7" d="M153.6,31.09h1.2l.91,2.56.92-2.56h1.2v3.67H157V32.34l-.9,2.42h-.83l-.85-2.42v2.42h-.83Z"/><path class="cls-7" d="M158.49,32.87a2,2,0,0,1,.24-.93,1.59,1.59,0,0,1,.68-.7,2.07,2.07,0,0,1,1-.23,1.83,1.83,0,0,1,1.9,1.91,1.93,1.93,0,0,1-.53,1.38,1.85,1.85,0,0,1-1.36.55,2.12,2.12,0,0,1-1-.23,1.57,1.57,0,0,1-.7-.67A2.24,2.24,0,0,1,158.49,32.87Zm1,.06a1.17,1.17,0,0,0,.26.83.79.79,0,0,0,.64.29.82.82,0,0,0,.64-.29,1.52,1.52,0,0,0,0-1.67.85.85,0,0,0-.64-.29.82.82,0,0,0-.64.29A1.18,1.18,0,0,0,159.49,32.93Z"/><path class="cls-7" d="M163,31.09h2.48v.78H164v2.89h-1Z"/><path class="cls-7" d="M166,31.09h.91v.54a1.2,1.2,0,0,1,.47-.45A1.29,1.29,0,0,1,168,31a1.39,1.39,0,0,1,1.09.5,2.06,2.06,0,0,1,.44,1.4,2.1,2.1,0,0,1-.45,1.43,1.4,1.4,0,0,1-1.09.51,1.26,1.26,0,0,1-.55-.12,2,2,0,0,1-.52-.42v1.85h-1Zm1,1.77a1.39,1.39,0,0,0,.25.92.73.73,0,0,0,.59.3.72.72,0,0,0,.57-.28,1.38,1.38,0,0,0,.22-.89,1.32,1.32,0,0,0-.23-.86.72.72,0,0,0-.57-.28.74.74,0,0,0-.59.28A1.19,1.19,0,0,0,166.93,32.86Z"/><path class="cls-7" d="M171.05,32.21l-.88-.16a1.4,1.4,0,0,1,.51-.79,1.87,1.87,0,0,1,1.08-.25,2.39,2.39,0,0,1,1,.15,1,1,0,0,1,.45.39,2,2,0,0,1,.13.87v1.14a4.14,4.14,0,0,0,0,.71,2.27,2.27,0,0,0,.18.49h-1a2.68,2.68,0,0,1-.1-.28.5.5,0,0,0,0-.12,2,2,0,0,1-.53.37,1.54,1.54,0,0,1-.61.12,1.25,1.25,0,0,1-.89-.31,1,1,0,0,1-.33-.78,1,1,0,0,1,.15-.55,1,1,0,0,1,.42-.38,3.12,3.12,0,0,1,.77-.23,5.26,5.26,0,0,0,.94-.23v-.1a.51.51,0,0,0-.13-.4.86.86,0,0,0-.53-.12.66.66,0,0,0-.4.1A.71.71,0,0,0,171.05,32.21Zm1.3.79-.59.15a1.69,1.69,0,0,0-.53.17.42.42,0,0,0-.19.34.47.47,0,0,0,.15.35.54.54,0,0,0,.39.15.86.86,0,0,0,.5-.17.59.59,0,0,0,.23-.32,1.74,1.74,0,0,0,0-.48Z"/><path class="cls-7" d="M176.38,29.69h1v1.87a1.1,1.1,0,0,1,.42-.41,1,1,0,0,1,.56-.14,1.13,1.13,0,0,1,1,.57,2.44,2.44,0,0,1,.37,1.37,2.17,2.17,0,0,1-.42,1.35,1.24,1.24,0,0,1-1,.55,1,1,0,0,1-.49-.13,1.53,1.53,0,0,1-.42-.39v1.83h-1V34.33a1.62,1.62,0,0,1-.45.39,1.14,1.14,0,0,1-.51.13,1.16,1.16,0,0,1-1-.55,2.35,2.35,0,0,1-.39-1.39,2.09,2.09,0,0,1,.44-1.36,1.27,1.27,0,0,1,1-.54,1,1,0,0,1,.51.13,1.19,1.19,0,0,1,.42.39Zm-.65,2.06a.57.57,0,0,0-.47.32,1.57,1.57,0,0,0-.2.86,1.73,1.73,0,0,0,.18.85.51.51,0,0,0,.95,0,1.59,1.59,0,0,0,.2-.88,1.48,1.48,0,0,0-.21-.88A.6.6,0,0,0,175.73,31.75Zm2.27,0a.54.54,0,0,0-.48.34,1.93,1.93,0,0,0-.19.87,1.52,1.52,0,0,0,.2.83.55.55,0,0,0,.47.31c.19,0,.34-.12.48-.35a1.62,1.62,0,0,0,.19-.81,1.81,1.81,0,0,0-.18-.85A.54.54,0,0,0,178,31.76Z"/><path class="cls-7" d="M180.47,30.59v-.9h1v.9Zm0,4.17V31.09h1v3.67Z"/><path class="cls-7" d="M181.76,30.44V29.6h.84v.84Zm.68,4.32V31.09h1v3.67Zm.81-4.32V29.6h.84v.84Z"/><rect class="cls-8" x="47.24" y="23.9" width="136.65" height="0.43"/></svg>