<svg id="Слой_1" data-name="Слой 1" xmlns="http://www.w3.org/2000/svg" viewBox="0 0 1121.43 96.6"><defs><style>.cls-1{fill:#2a4093;}</style></defs><title>planmeca_logo</title><path class="cls-1" d="M586.65,1.43C597.54,21.33,608.3,41,619.07,60.64c0,.09.31.06,1,.16,1.22-2.22,2.57-4.63,3.87-7.07,8.62-16.13,17.3-32.24,25.79-48.45,1.57-3,3.33-4.32,6.9-4.24,11.32.25,22.66.08,34,.08h3.6c.48.39.63.48.74.6a1,1,0,0,1,.25.4,29.76,29.76,0,0,1,.26,3q0,44.22-.06,88.46a7.37,7.37,0,0,1-.5,1.65H668.63c-.09-1.8-.26-3.55-.26-5.31,0-17.66,0-35.32,0-53,0-2,.73-4.4-1.47-6.1-2.06.51-2.52,2.49-3.35,4C656.06,48.15,648.7,61.57,641.29,75c-3.77,6.82-7.58,13.62-11.43,20.51-6.24,0-12.22-.14-18.2.06-2.85.1-3.73-1.8-4.77-3.66Q599,77.71,591.16,63.5,582.7,48.22,574.23,33c-.63-1.13-1.45-2.14-2.25-3.3-2.13,1.26-1.44,3.08-1.45,4.59q-.06,27.49,0,55v5.35c-3.77,1.11-19.7,1.34-26.46.48-.89-3.46-1.22-86.51-.37-93.16C547.21.92,576.91.59,586.65,1.43Z"/><path class="cls-1" d="M517,95.48H491.12c-4.33,0-8.68-.19-13,.06-3.33.19-5.53-1-7.57-3.62C460.46,78.88,450.19,66,440,53q-8.5-10.8-17-21.61c-.79-1-1.4-2.2-2.49-3.93a16.14,16.14,0,0,0-1.91,8.91q0,26.51,0,53v5.76H391.39c-1-3.47-1.22-87.48-.18-94H395c11.67,0,23.33.13,35-.08a8.41,8.41,0,0,1,7.52,3.7q22.36,28.78,44.93,57.45c1.6,2,3.34,4,5.66,6.73a28.61,28.61,0,0,0,1-4.66c0-18.49-.11-37-.15-55.46,0-2.31.21-4.61.32-6.79C493.06.94,510.54.73,517,1.62Z"/><path class="cls-1" d="M824.87,73V95.18H722.33c-.94-3.89-1.33-82.43-.48-93.29,3.51-1,90.37-1.39,101.27-.43,0,3.34.14,6.76.17,10.18s0,6.94,0,10.92H750.38c-1.35,5.32-.53,10.19-.63,15.48h69.37c.5,6.62.28,12.82.14,19.51h-69a46.83,46.83,0,0,0,0,15.4Z"/><path class="cls-1" d="M967.46,35.25H939.11c-.15-1-.28-1.83-.37-2.63-.51-4.87-2.5-7.07-7.31-8a18,18,0,0,0-3.45-.52c-13.31.13-26.63,0-39.92.62-6.93.31-11.35,5-11.72,12a233.83,233.83,0,0,0,0,24.41c.33,6.65,4.53,10.51,11.4,10.91,7.47.44,15,.52,22.45.53q9.48,0,19-.46c7.81-.4,9.84-2.48,10.62-10.22.05-.48.2-.95.41-2,9.13-.64,18.32-.36,27.75-.15.52,6.84.78,13.31-1.09,19.59A20.5,20.5,0,0,1,955,92.78c-6.54,2.91-13.52,3.54-20.48,3.64q-24,.36-48,0c-7-.11-13.94-.62-20.71-2.71-10-3.1-16-9.87-18-20a60.32,60.32,0,0,1-1.11-11.39c-.15-10-.28-20,.06-30a54.88,54.88,0,0,1,2.31-13.68c2.24-7.48,7.53-12.35,14.81-15.12C870.56,1,877.54.32,884.5.2c14.32-.24,28.66-.31,43,0,7.61.18,15.27.66,22.71,2.82,10,2.9,15.35,9.4,16.18,19.72C966.68,26.74,967.06,30.69,967.46,35.25Z"/><path class="cls-1" d="M0,1.13H5.15c23.49,0,47-.11,70.46.08A71.51,71.51,0,0,1,91.39,3.08c11.19,2.68,17.73,10.47,18.81,21.8.74,7.79,1.28,15.6.09,23.42a30.57,30.57,0,0,1-5.21,13.84c-4.92,6.71-11.89,9.4-20,9.43-17.16.06-34.31,0-51.47,0H27.72c-.78,8,0,15.63-.52,23.83-9.06.12-18,.06-27.2,0ZM27.65,48.39c1.59.15,2.87.38,4.16.38q19.5,0,39,0a19,19,0,0,0,4.43-.6c4-1,6.24-3.6,6.51-7.77a60.87,60.87,0,0,0,0-8c-.25-3.67-2.13-6.34-5.75-7.31A30.17,30.17,0,0,0,68.6,24c-12-.11-24-.06-36,0-1.61,0-3.22.27-5,.42Z"/><path class="cls-1" d="M1033.37,1.31h37.1l51,93.68a16.53,16.53,0,0,1-2.6.46c-8.16,0-16.33-.06-24.49.07-2.86,0-4.61-.89-5.89-3.52-2.19-4.47-4.74-8.75-7.17-13.18h-58.44c-2.2,4.37-4.54,8.75-6.63,13.25-1.11,2.37-2.44,3.54-5.28,3.48-9-.19-17.95-.07-27.87-.07,8.41-16.47,17-31.95,25.36-47.55S1025.05,16.86,1033.37,1.31Zm.82,56.79a9,9,0,0,0,2,.68c9.83,0,19.65.1,29.48,0a18.81,18.81,0,0,0,4.24-1.09,25.48,25.48,0,0,0-1-2.91q-5.64-10.83-11.34-21.63c-1.24-2.36-2.42-4.76-3.81-7-1.23-2-2.48-1.92-3.76,0a14.79,14.79,0,0,0-.92,1.77c-4.54,8.87-9.1,17.74-13.61,26.63A26.63,26.63,0,0,0,1034.19,58.1Z"/><path class="cls-1" d="M322.47,1.12,373.55,95a19.8,19.8,0,0,1-2.73.44c-8.32,0-16.64-.06-25,.07a4.89,4.89,0,0,1-5.08-3c-2.31-4.6-4.85-9.07-7.35-13.7H275c-2.18,4.26-4.6,8.6-6.63,13.12-1.2,2.65-2.78,3.67-5.71,3.6-8-.18-16-.05-24-.07-.93,0-1.86-.2-3.24-.35,1-2,1.68-3.65,2.52-5.22q22.72-42.42,45.4-84.85c1.53-2.89,3.19-4.08,6.54-4C300.54,1.26,311.19,1.12,322.47,1.12ZM286.12,58.55h36.27a16.08,16.08,0,0,0-.68-2.22q-7.56-14.61-15.17-29.21a7.58,7.58,0,0,0-.77-1.29c-1.2-1.53-2.4-1.53-3.56.05A16,16,0,0,0,301,28.05c-4.54,8.89-9.1,17.76-13.6,26.66A29.74,29.74,0,0,0,286.12,58.55Z"/><path class="cls-1" d="M133,95.24V1.39H161.1c.15,5.85.06,11.62.07,17.38s0,11.65,0,17.48q0,8.49,0,17v18c5.52.8,10.79.3,16,.4s10.65,0,16,0h31.33c1.12,4,1.25,18.29.27,23.63Z"/></svg>