<svg id="Слой_1" data-name="Слой 1" xmlns="http://www.w3.org/2000/svg" viewBox="0 0 1020.47 1020.47"><defs><style>.cls-1{fill:#fff;}</style></defs><title>soc_ic</title><path class="cls-1" d="M1020.24,196a174.1,174.1,0,0,0-3.49-34.58C997,65.67,916.89.21,819.22.11q-308.85-.3-617.7.1a213.1,213.1,0,0,0-30.8,2.09C72.76,16.55.2,100.35.1,200.1Q-.2,510.39.3,820.68a214.13,214.13,0,0,0,3.19,34.68c15.75,95.06,100.06,165.51,196.14,165.11,111.92-.4,223.84-.1,335.76-.1h177.2c37.57,0,75,.1,112.61-.1a207.76,207.76,0,0,0,24.82-2c96.17-13.25,170-96.66,170.22-193.61Q1020.84,510.35,1020.24,196ZM699.52,327.4,417.81,589.22a58.33,58.33,0,0,0-18.1,34.94l-9.6,71.11c-1.27,9.49-14.61,10.43-17.23,1.24L336,566.85a34.38,34.38,0,0,1,15-38.66L692.35,318C698.48,314.22,704.8,322.51,699.52,327.4ZM863.8,206.11,735.16,824.77a20.58,20.58,0,0,1-32.25,12.45L527.3,709.75a29,29,0,0,0-35.4,1l-97.36,79.35a20.57,20.57,0,0,1-32.66-9.82l-67.6-217.39L119.62,497.71c-17.75-6.65-17.9-31.69-.21-38.51L836.24,182.72A20.59,20.59,0,0,1,863.8,206.11Z"/></svg>