<svg id="Слой_1" data-name="Слой 1" xmlns="http://www.w3.org/2000/svg" viewBox="0 0 1020.47 1020.47"><title>soc_ic_bl</title><path d="M.08,512C.08,444.65,0,377.34.18,310c.1-34.6-1.1-69.41,1.6-103.92,4-52.4,24.43-98.41,60.94-136.72C95.14,35.49,134.43,13.58,180.52,5A258.7,258.7,0,0,1,226.9.28Q510.56-.17,794.13.18C850.69.28,901.36,18,944.05,55.59c39.49,34.81,63.73,78.71,72.61,130.92a286.45,286.45,0,0,1,3.69,49.71c-.1,188.33.5,376.66-.3,565-.2,57.81-21.54,108.42-61.74,150.53-34.21,35.9-75.9,57.81-124.68,65.61a250.46,250.46,0,0,1-39.6,3q-163.53.3-327,.1c-83.39-.1-166.77,0-250.26-.6-44-.3-84.28-13.9-120.29-39.21-53.06-37.41-84-88.71-93.36-152.92A252.63,252.63,0,0,1,.18,791Q-.12,651.33.08,512Zm139-1.6h-.3c0,40-.1,80,.1,120,.1,23-1.09,46.21,1.5,68.92,8.28,73,45.18,128.22,107.62,166.22,35.61,21.61,75.11,29.91,116.2,29.81q148.13-.15,296.14-.9c8.28,0,16.66-.1,24.83-.9,47.88-4.7,89.87-23.21,125.08-55.91,44.29-40.91,68.82-91.72,70.82-152.43,1.2-35.3.5-70.61.5-106,.1-78.72.3-157.33.2-236a199,199,0,0,0-2-27.81C864.15,208.82,773,128.8,666.16,128.6q-155.6-.3-311.09.1a200.48,200.48,0,0,0-26.84,1.7c-55.35,7.5-101.23,33-137.34,75.51-35.11,41.21-51.77,89.32-51.67,143.43Q139.07,429.76,139.12,510.36Z"/><path d="M196.57,509.36c0-54.3-.1-108.61,0-162.92.1-75.51,55-142.13,129.07-156.23a166.32,166.32,0,0,1,30.62-2.9q155.46-.45,311,0c38.8.1,72.71,14.1,101.74,39.51,32.31,28.2,49.87,64.11,54.26,106.72a70.26,70.26,0,0,1,.4,8c.2,112.92,1.49,225.93.1,338.85-.7,56.41-27.53,100.52-74.91,131.32-27.53,17.91-58.15,25.11-90.87,24.91-103.33-.4-206.66.2-310-.8-36.4-.4-68.62-15-96.05-38.91-33.31-29.1-51.47-66.31-55.16-110.52-.3-3.6-.3-7.3-.3-11q.15-83.11.1-166Zm315-203.23c-11.87.9-23.94,1.1-35.61,3-47.37,7.5-86.87,29.81-118.29,66.21-42,48.61-57.15,105.22-48,168.13,7.08,48.61,30.62,89,67.63,121.12,49.47,42.91,107.22,58.11,170.76,46.11,72.41-13.61,122.18-57.31,150.61-125,17.25-41.11,19.45-84.12,10.17-127.42-12.36-58.11-44.58-101.72-98.14-128.63C579.59,314,546.17,307.73,511.56,306.13Zm158.19-4.9c-1.39,28.2,24.44,48.91,47.28,49,23.94.2,48.78-19.1,49.18-48.51.29-26.3-21.15-46.61-47.18-48.21C694.69,252.12,668.56,274,669.75,301.23Z"/><path d="M643.92,503.66c-1.69,50-19.65,90-60.14,117.42-71.12,48.21-160.59,15.3-193.11-52.51-35.5-74.31,4-166.62,83.49-187,49-12.5,95.25-2.9,134.05,31.31,19.35,17,28.93,40.3,33,65.61C642.72,487.36,643.12,496.36,643.92,503.66Z"/></svg>