<svg id="Слой_1" data-name="Слой 1" xmlns="http://www.w3.org/2000/svg" viewBox="0 0 1020.47 1020.47"><title>soc_ic_bl</title><path d="M705.71,1020V625.78H838.16c6.68-51.72,13.16-102.44,19.93-154.65-13.55-.7-26-.3-38.47-.4-12.65-.1-25.21,0-37.87,0H705.91c-.2-3.39-.5-5.68-.5-7.87,0-32.59-.2-65.07.1-97.65a109.77,109.77,0,0,1,2.59-22.72c5.58-25.11,22.62-40.16,49.23-43.65a249.38,249.38,0,0,1,29.8-2c21.93-.3,43.85-.1,65.78-.1,3.19,0,6.48-.3,10.17-.4V159.64c-5.09-.8-9.87-2-14.65-2.19-37.08-1.5-74.25-3.79-111.43-4-35-.2-68.56,7.57-99.36,24.81C593.39,203,566.88,241.35,554,289.78c-5.88,22.22-8.27,44.94-8.17,68,.1,33.58,0,67.06,0,100.64v11.76c-11.36,1.3-22.22.5-33,.6-11.26.1-22.62,0-33.88,0H413V624.88c22.33,1.3,44.15.4,66,.6s43.75,0,66.27,0v394.39c-3.38.2-6.67.5-9.86.5-111.92,0-223.84-.3-335.76.1-96.08.4-180.39-70.05-196.14-165.11A214.13,214.13,0,0,1,.3,820.68Q-.15,510.39.1,200.1C.2,100.35,72.76,16.55,170.72,2.3A213.1,213.1,0,0,1,201.52.21q308.85-.3,617.7-.1c97.67.1,177.8,65.56,197.53,161.32a174.1,174.1,0,0,1,3.49,34.58q.3,314.33,0,628.66c-.2,97-74,180.36-170.22,193.61a207.76,207.76,0,0,1-24.82,2c-37.57.2-75,.1-112.61.1C710.79,1020.37,708.8,1020.17,705.71,1020Z"/></svg>