<svg id="Слой_1" data-name="Слой 1" xmlns="http://www.w3.org/2000/svg" viewBox="0 0 1020.47 1020.47"><defs><style>.cls-1{fill:#fff;}</style></defs><title>soc_ic</title><path class="cls-1" d="M1020.22,198c-.3-61.78-25.11-112.7-72.35-152.26C910.5,14.45,866.75,0,818.21,0H209.49c-10,0-19.94.4-29.8,1.39C124,7.07,78.63,32.19,43.55,75.53,13.85,112.3,0,154.85,0,202Q0,507.35.1,812.81c0,9.57.5,19.23,1.39,28.8C5.88,887.25,24.22,926.71,56,959.49c39.17,40.26,87.2,60.78,143.51,60.88q155.48.15,310.84,0,155.92,0,311.84.1c51.82-.1,97-18,134.64-53.31,42.15-39.46,63.48-88.48,63.48-146.38V484C1020.32,388.62,1020.72,293.36,1020.22,198ZM847.45,577.34C825.8,754,692.76,771,669.23,778.67,659,782,569.45,804.35,453,794.59c-12.86,14.93-29.9,34.5-42.25,47.8-22.5,24.22-36.36,46.73-59.94,39.41-19.44-6-18.37-35.62-18.37-35.62l.09-73.11-.17,0C162,725.14,164.52,548.47,166.46,454.16s20.22-170.3,72.15-222.28c93.33-85.63,284.84-74.09,284.84-74.09,162.34.73,235.27,53.65,253.3,70.26C836.65,280,869.78,395.17,847.45,577.34ZM738.89,264.88C723.61,251,657.78,209.63,520.44,209c0,0-162.64-10.67-241.6,60.84-43.93,43.37-58.73,107.91-60.36,186.65s-10,229.12,134,269.14l-.61,121.51c-.08,6.84,1,11.53,5,12.52,2.84.69,7.06-.78,10.63-4.39,23-23.15,96.77-112.09,96.77-112.09,98.92,6.46,177.62-13.12,186.09-15.83,19.88-6.37,127.79-15.71,146.08-163.2C815.35,412.08,789.53,308.25,738.89,264.88Zm-60,358.89-.09.26a139.62,139.62,0,0,1-28.18,34.72l-.26.22c-13.29,11.1-28.61,17.55-45,12.22l-.31-.43c-29.38-8.31-99.9-44.28-144.87-80.12-73.53-58-125.77-153.74-140.27-205l-.43-.3c-5.33-16.43,1.17-31.75,12.22-45l.22-.26a142,142,0,0,1,34.72-28.18l.26-.05c13.08-6.84,25.47-4.51,33.91,5.47,11.1,11.49,32,39.07,46.59,65,8.61,15.45,3.23,31.24-5.25,37.78l-17,13.55c-8.61,6.93-7.49,19.84-7.49,19.84S442.86,549,537.22,573c0,0,12.91,1.12,19.84-7.49l13.55-17c6.54-8.44,22.33-13.86,37.78-5.25,20.44,11.53,46.9,29.68,65,46.59C683.38,598.3,685.71,610.69,678.91,623.77ZM600.82,387.94c-19.07-20.83-45.23-32.23-80-34.77a9.19,9.19,0,0,1,1.34-18.33c39.15,2.89,70.18,16.57,92.25,40.71s33,54.64,32.18,90.48a9.12,9.12,0,0,1-9.16,9h-.22a9.14,9.14,0,0,1-8.95-9.38C628.91,434.24,620,408.85,600.82,387.94Zm-10.07,71.29h-.48a9.2,9.2,0,0,1-9.16-8.73c-1.55-31.15-16.22-46.43-46.21-48a9.18,9.18,0,0,1,1-18.33c39.54,2.11,61.53,24.74,63.55,65.45A9.15,9.15,0,0,1,590.75,459.23Zm95,34.64h-.09a9.15,9.15,0,0,1-9.16-9.08c-.43-55.37-17-99.48-49.44-131.06s-73.41-47.8-121.81-48.15a9.19,9.19,0,0,1,.08-18.37h0c53.31.39,98.57,18.33,134.5,53.35s54.52,83.65,55,144.06A9.18,9.18,0,0,1,685.71,493.87Z"/></svg>